<?xml version="1.0" encoding="UTF-8"?>
<svg width="20px" height="22px" viewBox="0 0 20 22" version="1.1" xmlns="http://www.w3.org/2000/svg" xmlns:xlink="http://www.w3.org/1999/xlink">
    <!-- Generator: Sketch 63.1 (92452) - https://sketch.com -->
    <title>Group 41</title>
    <desc>Created with Sketch.</desc>
    <g id="Option-1" stroke="none" stroke-width="1" fill="none" fill-rule="evenodd" stroke-linecap="round" stroke-linejoin="round">
        <g id="Home-1" transform="translate(-164.000000, -3619.000000)" stroke="#48AC98" stroke-width="1.5">
            <g id="Group-26" transform="translate(0.000000, 3389.000000)">
                <g id="Group-5" transform="translate(130.000000, 87.000000)">
                    <g id="Group-7" transform="translate(0.000000, 112.000000)">
                        <g id="Group-17">
                            <g id="Group-48" transform="translate(25.738162, 24.000000)">
                                <g id="Group-41" transform="translate(9.267838, 8.179000)">
                                    <path d="M5.164,18.877 C3.799,16.929 2.996,14.559 2.996,12 C2.996,8.686 5.681,6 8.993,6 C12.305,6 14.99,8.686 14.99,12" id="Path"></path>
                                    <path d="M15.315,17.984 C15.207,17.99 15.101,18 14.992,18 C11.68,18 8.995,15.314 8.995,12" id="Path"></path>
                                    <path d="M10.241,19.642 C7.693,18.053 5.996,15.225 5.996,12 C5.996,10.343 7.339,9 8.995,9 C10.651,9 11.994,10.343 11.994,12 C11.994,13.657 13.337,15 14.993,15 C16.649,15 17.992,13.657 17.992,12 C17.992,7.029 13.964,3 8.996,3 C4.028,3 1.00364161e-12,7.029 1.00364161e-12,12 C1.00364161e-12,13.108 0.124,14.187 0.352,15.227" id="Path"></path>
                                    <path d="M17.367,3.794 C15.322,1.471 12.332,-6.55031585e-14 8.994,-6.55031585e-14 C5.656,-6.55031585e-14 2.666,1.471 0.621,3.794" id="Path"></path>
                                </g>
                            </g>
                        </g>
                    </g>
                </g>
            </g>
        </g>
    </g>
</svg>