<svg width="168" height="31" viewBox="0 0 168 31" xmlns="http://www.w3.org/2000/svg">
  <g fill="none" fill-rule="evenodd">
    <path d="M46.4 12c.3 0 .5 0 .7-.2.2-.2.3-.5.3-.8V4h2.1c.3 0 .5-.1.7-.3.2-.2.2-.4.2-.7 0-.2 0-.4-.2-.6a.9.9 0 00-.7-.3h-6.3c-.2 0-.5 0-.6.3-.2.1-.3.4-.3.6a1 1 0 001 1h2V11c0 .3.1.6.3.8.2.2.5.3.8.3zm13.2 0c.3 0 .6 0 .8-.3.2-.2.3-.5.3-.7v-.5l-3-7.5A1.8 1.8 0 0056 2c-.3 0-.7.1-1 .3-.3.2-.5.5-.6.8l-3 7.5v.5c0 .2 0 .5.3.7.2.3.5.4.8.4.2 0 .4 0 .6-.2.2-.1.4-.3.4-.5l.5-1H58l.4 1 .4.5.7.2zm-2-3.6h-3.2L56 4.1l1.6 4.3zM68.7 12c.3 0 .5 0 .7-.3.2-.2.3-.4.3-.7l-.3-.6a.9.9 0 00-.7-.3h-3.4V3a1 1 0 00-.3-.8 1 1 0 00-.7-.3 1 1 0 00-.8.3 1 1 0 00-.3.8v7.8c0 .3.1.6.4.8.2.3.5.4.8.4h4.3zm9.7 0c.3 0 .5 0 .6-.3.2-.2.3-.4.3-.7 0-.2 0-.4-.3-.6a.9.9 0 00-.6-.3h-4.1V8h4c.3 0 .5-.1.6-.3.2-.2.3-.4.3-.7 0-.2 0-.4-.3-.6a.9.9 0 00-.6-.3h-4V3.9h4.1c.3 0 .5-.1.6-.3.2-.2.3-.4.3-.7 0-.2 0-.4-.3-.6a.9.9 0 00-.6-.3h-5c-.4 0-.7.1-.9.3l-.3.9v7.6c0 .3 0 .6.3.8.2.3.5.4.9.4h5zm11.2 0a1.3 1.3 0 001.2-.7l.1-.5V3a1 1 0 00-.3-.8A1 1 0 0090 2a1 1 0 00-.8.3 1 1 0 00-.3.8v5.3l-4.2-5.8L84 2a1.5 1.5 0 00-1.2 0c-.1 0-.3 0-.4.2l-.3.5-.1.5V11c0 .3 0 .6.3.8.2.2.5.3.7.3.3 0 .6-.1.8-.3.2-.2.3-.5.3-.8V5.5l4.5 6a1.4 1.4 0 001 .6zm7.8 0c.3 0 .5 0 .8-.2.2-.2.3-.5.3-.8V4h2c.3 0 .5-.1.7-.3.2-.2.3-.4.3-.7l-.3-.6a.9.9 0 00-.6-.3h-6.4c-.2 0-.4 0-.6.3-.2.1-.3.4-.3.6a1 1 0 001 1h2V11c0 .3.1.6.3.8.3.2.5.3.8.3zM50.7 28c.4 0 .6 0 .8-.3.2-.2.3-.5.3-.7v-.5l-3-7.5c0-.3-.3-.6-.7-.8a1.8 1.8 0 00-1-.3c-.4 0-.7.1-1 .3-.3.2-.6.5-.7.8l-3 7.5v.5c0 .2.1.5.3.7.2.3.5.4.8.4.3 0 .5 0 .7-.2l.4-.5.4-1h4.3l.4 1c0 .2.2.4.4.5l.6.2zm-2-3.6h-3.1l1.5-4.3 1.6 4.3zm10 3.8a4.4 4.4 0 003.6-1.7l.2-.3V26c0-.2 0-.5-.3-.6a1 1 0 00-.7-.3 1 1 0 00-.4 0l-.4.3c-.2.4-.6.6-1 .8l-1 .2a3.1 3.1 0 01-2.3-1 3 3 0 01-.6-1c-.2-.4-.3-.8-.3-1.3s.1-.9.3-1.3c.1-.4.3-.7.6-1a3 3 0 011-.7c.4-.2.8-.3 1.3-.3.4 0 .7.1 1 .3l1 .7.4.2.4.1c.3 0 .5 0 .7-.3.2-.1.3-.4.3-.6 0-.3 0-.4-.2-.6-.4-.5-.8-.9-1.4-1.2-.6-.3-1.4-.5-2.2-.5-.8 0-1.5.2-2.1.4a5 5 0 00-2.8 2.7c-.3.6-.4 1.3-.4 2.1s0 1.5.4 2.1a5 5 0 002.8 2.7c.6.3 1.3.4 2 .4zm14.6.1c.3 0 .5 0 .7-.3l.3-.6c0-.3 0-.5-.2-.6l-.2-.3c.4-.4.7-1 1-1.5.2-.6.3-1.3.3-2s-.1-1.4-.4-2a4.8 4.8 0 00-2.7-2.8c-.7-.2-1.4-.4-2.1-.4-.8 0-1.5.2-2.1.4A5 5 0 0065 21l-.3 2.1c0 .8 0 1.5.3 2a4.8 4.8 0 002.8 2.8c.6.3 1.3.4 2 .4a6 6 0 002.4-.5l.3.3c.2.2.4.3.7.3zm-3.3-2a3 3 0 01-2.2-1c-.3-.2-.5-.6-.6-1-.2-.4-.3-.8-.3-1.3s.1-.9.3-1.3c.1-.4.3-.7.6-1 .2-.3.5-.6 1-.7a3 3 0 011.2-.3l1.2.3c.4.1.7.4 1 .7.2.3.5.6.6 1L73 23l-.1 1-.4 1-.6-.7a1 1 0 00-.7-.4c-.3 0-.5.1-.7.3a1 1 0 00-.2 1c0 .1 0 .2.2.3l.5.6-1 .2zm12.3 1.9a6 6 0 002-.3c.6-.2 1-.5 1.4-.9.4-.3.7-.8.8-1.3.2-.5.3-1 .3-1.7v-5a1 1 0 00-.3-.8 1 1 0 00-.7-.3 1 1 0 00-1.1 1v5c0 .7-.2 1.3-.6 1.7-.4.5-1 .7-1.8.7s-1.4-.2-1.7-.7c-.4-.4-.6-1-.6-1.7v-5a1 1 0 00-.4-.7 1 1 0 00-.7-.3 1 1 0 00-.8.3 1 1 0 00-.3.8v5c0 .6 0 1.2.3 1.7.2.5.4 1 .8 1.3.4.4.9.7 1.4.9.6.2 1.3.3 2 .3zM91 28c.3 0 .6-.1.8-.3.2-.2.3-.5.3-.8v-8a1 1 0 00-.3-.8 1 1 0 00-.7-.3 1 1 0 00-.8.3 1 1 0 00-.3.8v8c0 .3 0 .6.3.8.2.2.5.3.7.3zm7.8 0c.6 0 1.2 0 1.7-.2.5-.1 1-.4 1.3-.6l.7-1a3.3 3.3 0 000-2.5l-.6-.8c-.3-.3-.6-.5-1-.6a8.7 8.7 0 00-2-.6l-1-.3c-.3 0-.5-.2-.6-.3a.6.6 0 01-.3-.5c0-.3.1-.5.4-.7.2-.2.6-.3 1-.3a4.8 4.8 0 012.2.6l.6.1c.2 0 .5 0 .7-.2.2-.2.4-.4.4-.7l-.2-.5-.6-.5a5 5 0 00-2-.6h-.9a5 5 0 00-1.6.2c-.4.1-.8.4-1.1.6a3 3 0 00-.8 1l-.3 1.2c0 .5.1.9.3 1.2l.6.8 1 .5a10.2 10.2 0 002 .7l1 .2.7.4.2.5-.1.4c0 .2-.2.3-.3.4l-.6.2-.7.1c-.5 0-1 0-1.4-.2a5 5 0 01-1.1-.6H96l-.3-.1a1 1 0 00-.7.3 1 1 0 00-.3.7l.1.5.7.5a7.9 7.9 0 003.2.8zm7.5 0c.3 0 .6-.1.8-.3.2-.2.3-.5.3-.8v-8a1 1 0 00-.3-.8 1 1 0 00-.7-.3 1 1 0 00-.8.3 1 1 0 00-.3.8v8c0 .3.1.6.3.8.2.2.5.3.7.3zm7.6 0c.3 0 .5-.1.7-.3.3-.2.4-.5.4-.8V20h2c.3 0 .5-.1.7-.3.2-.2.3-.4.3-.7l-.3-.6a.9.9 0 00-.7-.3h-6.3c-.2 0-.4 0-.6.3-.2.1-.3.4-.3.6a1 1 0 001 1h2V27c0 .3.1.6.3.8.2.2.5.3.8.3zm7.5 0c.3 0 .5-.1.7-.3.3-.2.4-.5.4-.8v-8a1 1 0 00-.4-.8 1 1 0 00-.7-.3 1 1 0 00-.8.3 1 1 0 00-.3.8v8c0 .3.1.6.3.8.2.2.5.3.8.3zm8.9 0c.7 0 1.4 0 2-.3a5 5 0 002.8-2.7c.3-.6.4-1.3.4-2.1 0-.7-.1-1.4-.4-2a4.8 4.8 0 00-2.7-2.8c-.7-.2-1.4-.4-2.1-.4-.8 0-1.5.2-2.1.4a5 5 0 00-2.8 2.7L125 23c0 .8 0 1.5.3 2a4.8 4.8 0 002.8 2.8c.6.3 1.3.4 2 .4zm0-1.8a3 3 0 01-2.2-1c-.3-.2-.5-.6-.6-1-.2-.4-.3-.8-.3-1.3s.1-.9.3-1.3c.1-.4.3-.7.6-1 .2-.3.6-.6 1-.7a3 3 0 011.2-.3c.4 0 .9.1 1.2.3.4.1.7.4 1 .7.3.3.5.6.6 1l.2 1.3c0 .5 0 1-.2 1.3a3 3 0 01-2.8 2zm15.4 1.8a1.3 1.3 0 001.3-.8V19a1 1 0 00-.2-.8 1 1 0 00-.8-.3 1 1 0 00-.8.3 1 1 0 00-.3.8v5.3l-4.2-5.8-.5-.4a1.5 1.5 0 00-1.3 0c-.1 0-.3 0-.4.2l-.3.5-.1.5V27c0 .3.1.6.3.8.2.2.5.3.8.3.3 0 .5-.1.7-.3.2-.2.3-.5.3-.8v-5.5l4.5 6a1.4 1.4 0 001 .6zm5.4 0c.3 0 .6 0 .8-.3.3-.2.4-.5.4-.8 0-.4-.1-.7-.4-.9-.2-.2-.5-.4-.8-.4-.4 0-.6.2-.9.4-.2.2-.4.5-.4.9 0 .3.2.6.4.8.2.2.5.4.9.4zm5 0c.3 0 .6-.1.8-.3.2-.2.3-.5.3-.8v-8a1 1 0 00-.3-.8 1 1 0 00-.7-.3 1 1 0 00-.8.3 1 1 0 00-.3.8v8c0 .3 0 .6.3.8.2.2.4.3.7.3zm10.4-.1c.3 0 .5 0 .7-.3.2-.2.2-.4.2-.7 0-.2 0-.4-.2-.6a.9.9 0 00-.7-.3h-4V24h4l.6-.3c.2-.2.2-.4.2-.7 0-.2 0-.4-.2-.6a.9.9 0 00-.7-.3h-4v-2.1h4.1c.3 0 .5-.1.7-.3.2-.2.2-.4.2-.7 0-.2 0-.4-.2-.6a.9.9 0 00-.7-.3h-5c-.4 0-.6.1-.9.3l-.3.9v7.6c0 .3.1.6.3.8.3.3.5.4.9.4h5z" fill="#000" fill-rule="nonzero"/>
    <g stroke="#323232" stroke-linecap="round" stroke-linejoin="round" stroke-width="2.2">
      <path d="M15.1 22.3c0-3.2 2.6-5.8 5.8-5.8a5.8 5.8 0 01-5.8-5.9c0 3.3-2.6 5.9-5.8 5.9 3.2 0 5.8 2.6 5.8 5.8zM25.2 10.7c0-2.4 2-4.3 4.4-4.3-2.4 0-4.4-2-4.4-4.4 0 2.4-2 4.4-4.4 4.4a4.4 4.4 0 014.4 4.3h0z"/>
      <path d="M28.2 15v8.7c0 3.3-2.6 5.9-5.8 5.9H7.8A5.8 5.8 0 012 23.7V9.2C2 6 4.6 3.4 7.8 3.4h8.8"/>
    </g>
  </g>
</svg>
