<svg xmlns="http://www.w3.org/2000/svg" width="22" height="21" viewBox="0 0 22 21"><title>Group 37</title><g fill="none" fill-rule="evenodd" stroke="#48AC98" stroke-linecap="round" stroke-linejoin="round" stroke-width="1.5"><path d="M13.527 1v2M5.608 1v2m-3.96 4h15.839m-.001 1V5c0-1.657-1.33-3-2.97-3H4.618c-1.64 0-2.97 1.343-2.97 3v9c0 1.657 1.33 3 2.97 3h3.96m7.318-3.017v1.758l1.368.843"/><path d="M16.002 20c-2.46 0-4.455-2.014-4.455-4.5 0-2.434 2.049-4.503 4.458-4.5 2.46.002 4.451 2.016 4.451 4.5 0 2.485-1.994 4.5-4.454 4.5"/></g></svg>