<svg xmlns="http://www.w3.org/2000/svg" width="20" height="20" viewBox="0 0 20 20"><title>Group 42</title><g fill="none" fill-rule="evenodd" stroke="#266678" stroke-linecap="round" stroke-linejoin="round" stroke-width="1.5"><path d="M5.5 1h9.004A4.496 4.496 0 0 1 19 5.496v9.009A4.496 4.496 0 0 1 14.504 19H5.496A4.496 4.496 0 0 1 1 14.504V5.5A4.5 4.5 0 0 1 5.5 1h0zm.62 8.1v5.4"/><path d="M9.719 14.5v-3.15a2.25 2.25 0 0 1 2.25-2.25h0a2.25 2.25 0 0 1 2.25 2.25v3.15M6.118 5.838a.225.225 0 1 0 .003.45.225.225 0 0 0-.003-.45"/></g></svg>