<svg width="50" height="27" viewBox="0 0 50 27" xmlns="http://www.w3.org/2000/svg">
  <path d="M36.4 3.7l-.5-.7-.3.5-.2-.5-.2.4h-.3v-.6H34c-.3-.5-.6-.7-.8-.4l.1.2v.3l-.6-.4h-.5l.3.3c-.4.5-.4.5-.8.2l-.5.3c0 .1 0 .3-.3.2l-.3-.4-.7 1-.3-.2-.3.5-.6.3.1.2-1 .4.1.1-.5 1.3c.7-.3.8-1 1.3-1.3l1.4-1.1v.4l-.9.7-.7.7c-.3.1-.4.5-.6.7-.3.4-.4 1-1 1.2-.1.5-.2 1-.6 1.3v.7l-.3.1c.1.3.2.5 0 .7-.3.4-.5.8-.4 1.3l-.2 1c0 .2 0 .5-.2.7v.2l.4.1-.2.3v.4l.1.3v.3l.3 1.4c.1.6.4 1.1.8 1.6.6-.1 1.1-.5 1.7-.6.7-.1 1.2-.6 1.8-.8 1.2-.5 2.2-1.4 3.4-1.8l.2-.2.2-.2c1-.7 2-1.5 2.8-2.4.5-.5.8-1 1.2-1.6l.5-1c.4-.4.4-1 .5-1.5V6.5c0-.7-.3-1.2-.6-1.7l-.5-.4c-.2-.1-.2-.3-.3-.5l-.3.2-.3-.4h-.6zm-7.7-2.6c0 .2.4.4.2.8l-.2-.1c-.2.3-.4.4-.7.5l-1 1.1-1.2 1-.3-.2c0 .7-.3 1-.7 1.4a522 522 0 00.5.5v-.5c.5 0 .7-.3 1-.6l-.3-.3c.5-.1.9-.3 1.2-.7.6-.9 1.5-1.4 2.3-2l.7-.2-.6-.4-.4.5c0-.4-.2-.7-.3-1 .3 0 .7-.2 1-.4l.2.1c.6-.4 1.5-.4 2.2-.6l.4.2v.4h.4L33 .3l.2-.2c.5 0 .5.4.8.7L34 0c.5 0 1 .3 1.4.4v.7l.3-.5h.8l-.2.4.6-.2c-.1 0 0 0 0 0l1.8 1c.8.5 1.5 1.2 2.1 1.9l1.4 2 .3.4-.2.2c.3 0 .5.3.5.6.3 1 .3 1 0 1.4l.5 1-.5.2.2.4-.4 2h-.5c0 .7-.3 1-.8 1.5l.5.3-.3.5-.1-.4c-.2 0-.4 0-.5.2l-.9 1.3v.3c-.4.3-.7.4-.9.7-.4.8-1.1 1.1-1.8 1.6l-.5.3-.1-.3-.2.1c0 .3 0 .5-.3.6h-.6l-.6.8-.6-.2c-.3.7-1 .8-1.5 1l-.3-.1-.5.5h-.7c-.2.4-.4.6-.8.4l-.9.6 1.8 1 .2-.1.7.2v.2h.1c.2-.2.4-.1.6-.1l.7.2h.7c.3.2.4 0 .7 0 .3 0 .5.2.9 0h.8c1 0 1.9-.3 2.7-.5l1.7-.4 2.4-1c.4-.2.9-.2 1.2-.6 0-.1.4 0 .3-.3l.3-.2.4-.4.9-.7v.7c-.4.2-.4.2-.7 1h.5c.2-.5.7-.8 1-1.3l.3.3-.3.6h.3l.4-.6.2.6.6.4c-.3 0-.5.2-.8.3l.2.5-.7.5.5.3-.5.4-.5-.3.2.6-.3.2v-.3l-1 .6.2.1-.5.6-.3-.2c0 .2-.2.3-.3.5H45l-1.4.9c-.4.2-1 0-1.3.4l-.4-.4h-.5l.5.3c-.6.3-1 .9-1.8.5l-.3.3-.2-.2c-.4.3-.8.3-1.2 0l-.5.4-.5-.1h-1l-.3-.1-.4-.2c-.5.6-1-.1-1.6 0l.5-.6c-.2-.2-.5 0-.8.5v-.3c-.4-.3-.6 0-.9 0l-.3-.3-.3.2v-.3l-2-.6a.7.7 0 01-.4-.5h-.7l-2.6-1.8-.4-.2-.5-.4-.1.4c-.5-.1-1 0-1.5-.2l-.6.3c-.5-.4-1.2 0-1.7-.3l-.6.2-.2-.4c-.3.2-.6.1-1 0-.3 0-.7 0-1-.4l-.2.2-.2-.2-.3.1-1.2-.3c-.8-.2-1.6-.3-2.4-.8l-.8-.2a15.4 15.4 0 01-7-4.2c-.3-.3-.5-.6-.8-.7l-.6-.7c-.6-.5-1-1.3-1.6-2a18 18 0 01-1.3-2c-.4-.7-1-1.5-1.2-2.3C1 7.7.6 7 .5 6.2l-.1-.3c0-.5-.3-1-.4-1.6V3.1l.5-.5 1 .3v.3h.4l.4.6.2.7c0 1 .5 1.6.8 2.4L4 8.6l.5.9 1.3 2 .7 1 1.8 2a17 17 0 004.8 3.1l1.2.3c.6.2 1 .5 1.6.6.8 0 1.6.4 2.4.4l1 .2c.3 0 .6-.1.9.2l.6-.1a2 2 0 011.5 0l.3-.1.3.2.1.1.5-.5-.5-1-.5-1.3a5 5 0 01-.4-1.4l-.2-.2v-1c0-.3 0-.5-.2-.8v-.4c.3-.5.1-1 .2-1.6 0-.4.1-.9.5-1.2 0-.4 0-.8.2-1.2.2-.2.2-.6.3-.7l.3-.8c.2-.4.2-1 1-1.2l-.3-.3.5-.4.3-.8c.3-.3.7-1 1.2-1.3.5-.3.8-.8 1.2-1.2l1.6-1z" fill="#000" fill-rule="evenodd"/>
</svg>
