<?xml version="1.0" encoding="UTF-8"?>
<svg width="64px" height="29px" viewBox="0 0 64 29" version="1.1" xmlns="http://www.w3.org/2000/svg" xmlns:xlink="http://www.w3.org/1999/xlink">
    <!-- Generator: Sketch 63.1 (92452) - https://sketch.com -->
    <title>50</title>
    <desc>Created with Sketch.</desc>
    <g id="Option-1" stroke="none" stroke-width="1" fill="none" fill-rule="evenodd">
        <g id="Home-1" transform="translate(-756.000000, -5552.000000)" fill="#000000">
            <g id="Group-55" transform="translate(0.000000, 5363.000000)">
                <g id="50" transform="translate(756.000000, 189.000000)">
                    <path d="M25.8844435,23.4386475 L21.0664968,25.1652451 C22.7730885,24.871825 24.3761713,24.2806357 25.8844435,23.4386475 M37.0645616,22.6059375 C35.1509522,23.0533161 33.2709759,23.5618723 31.3309818,23.7926652 C33.3640469,23.9596712 35.2361948,23.3400676 37.0645616,22.6059375 M32.3182303,16.7024523 C32.3283783,15.9459967 31.8401179,16.0408074 31.3921593,16.1054642 C29.8772185,16.3232098 29.0984375,17.4908014 28.3645973,18.6143221 C27.8296564,19.433115 27.3767689,20.3516476 27.3643014,21.3858665 C27.3593724,21.780186 27.464331,22.093612 27.9746269,21.8120795 C29.3677925,21.0431564 30.6203369,20.1086771 31.5240824,18.7746594 C31.9546445,18.1391091 32.2535735,17.4420914 32.3182303,16.7024523 M31.3388102,22.8979079 C32.5710587,22.9590854 33.7534374,22.6195647 34.9337865,22.3197659 C40.0338456,21.0240203 44.3298988,18.3098843 48.223804,14.8468311 C50.8248632,12.5333932 53.1797625,9.9946714 55.4497092,7.36780754 C55.6570169,7.12831642 55.8570761,6.87780754 56.1690524,6.76820991 C56.5195909,6.645275 56.7672003,6.67339926 56.602224,7.14049393 C56.5619222,7.25560044 56.4021648,7.36316848 56.6204903,7.43014481 C57.3734666,7.66151759 57.1693482,8.21008563 57.0356855,8.70907379 C56.7851767,9.64558264 56.1583246,10.383772 55.6219341,11.1521152 C54.1194607,13.3049258 52.5340643,15.4029376 50.6871413,17.2747955 C48.9724312,19.0124109 47.0251887,20.4821209 45.0379343,21.8964523 C43.7729224,22.7967185 42.4736976,23.6949552 40.9845615,24.1017422 C39.9952835,24.371967 39.1962065,24.9762037 38.2309935,25.2510676 C36.3805912,25.7778901 34.5319285,26.282967 32.5983132,26.3902451 C31.006828,26.4783871 29.5034848,26.1629315 28.1190174,25.3711031 C27.6626505,25.1098664 27.2335381,25.0916001 26.7702127,25.2823812 C25.5214375,25.7961563 24.2523666,26.2713693 22.9873547,26.7257066 C20.9293548,27.4653457 18.7634968,27.875032 16.5958992,28.198606 C13.1386449,28.7147007 9.67646148,28.8773575 6.21833728,28.1916474 C4.18585211,27.7886297 2.20816575,27.2591977 0.681917259,25.7184522 C0.280059278,25.312825 -0.0179998888,24.8651564 0.000846264678,24.2623694 C0.00867466691,24.0025824 0.09072792,23.8060025 0.345006022,23.6972747 C0.645674656,23.5691209 0.672059271,23.7822274 0.810650985,23.9770676 C1.76078706,25.3136948 3.27514798,25.4888191 4.71412429,25.7851386 C8.67964493,26.6019019 12.6251597,26.2278782 16.5611063,25.5395587 C19.5730116,25.0127362 22.5046033,24.1971327 25.3373251,23.039399 C25.5623192,22.9474877 25.8725559,22.9553161 25.6852541,22.5305528 C25.0325973,21.0506949 25.1378458,19.5374937 25.6690174,18.0648843 C26.4886801,15.7917482 27.8241476,13.9488843 30.2782067,13.244908 C31.5968576,12.8665353 32.4762481,13.2950678 33.2498102,14.4185885 C35.2211179,17.2805943 34.1393486,20.3623754 31.8917274,22.2072688 C31.6902185,22.3722452 31.4889996,22.5372215 31.2880706,22.7019079 C31.3048872,22.7674345 31.3219937,22.8326712 31.3388102,22.8979079" id="Fill-149"></path>
                    <path d="M56.7277394,3.14916855 C58.2710944,2.66322773 59.7147097,1.98041709 61.0110352,1.00911534 C59.5833666,1.72236976 58.1556979,2.43591413 56.7277394,3.14916855 M59.9182482,9.63427495 C59.9544908,7.99552942 60.2696565,6.39157678 60.5216151,4.7795058 C60.5593074,4.53856498 60.7309523,4.27587859 60.4282541,4.06538156 C60.1374435,3.8632928 59.9130293,4.06973067 59.7161594,4.19933422 C58.6425086,4.90476024 57.4218577,5.25558864 56.2522364,5.73978981 C55.5134672,6.04596732 54.8265974,6.49421583 54.0579643,6.78560636 C52.8744258,7.23385488 51.7230708,7.77140516 50.5720058,8.30083711 C49.9886448,8.56903237 49.3049644,8.55250574 48.7975679,9.06367141 C48.2997395,9.5649791 47.7601597,9.41391993 47.1475147,8.57860041 C46.8346685,8.1523874 46.7065147,7.58410339 47.2388461,7.17963594 C47.6766567,6.84707382 48.1478105,6.54263595 48.6412898,6.30227501 C51.9074732,4.71194959 55.186414,3.14800879 58.454337,1.56145261 C59.1878873,1.20540527 59.8982423,0.799488121 60.6143961,0.408068009 C61.9165204,-0.303736712 62.4676979,-0.11266571 63.1635558,1.20540527 C63.7037156,2.22860644 63.7469168,3.23847033 63.3836209,4.32835788 C62.6845736,6.42636968 62.0452541,8.5443874 61.7524139,10.746488 C61.6938458,11.1877779 61.6973251,11.6368962 61.6558636,12.0810856 C61.6083133,12.5954406 61.3670825,12.7267838 60.9255026,12.4240856 C59.9463725,11.7537424 59.8637393,11.5278785 59.9182482,9.63427495" id="Fill-151"></path>
                </g>
            </g>
        </g>
    </g>
</svg>