<svg width="27" height="35" viewBox="0 0 27 35" xmlns="http://www.w3.org/2000/svg">
  <path d="M10.7 7.8c0 .4-.7.6-.2 1V9c-.4.4-.1 1-.2 1.4v2.7c0 1 .1 1.8-.2 2.8V18c.1.8-.3 1.4-.2 2.2.1 1-.4 2-.2 3-.5 1-.4 2.2-.7 3.2-.1.4-.4.8-.2 1.3.3.1.6-.2.8-.2.8-.2 1.6-.5 2.4-.5.3-.4.8-.1 1.1-.3.3-.2.8-.3 1.2-.3.5 0 .8-.4 1.2-.3.4-.4 1-.2 1.5-.4l3-.9c.5-.2.8-.5 1.1-.8.2-.6 0-1.1-.3-1.5-.7-1.1-1.4-2.3-2.2-3.3l-3.5-5-2.8-4.1-1.6-2.3m10 20.8l-.8.7-.2-.2c-.8.6-2 .1-2.7.8-.1 0-.3-.3-.4-.2-.3.3-.6.4-.9 0l-.2.1c0 .6-.4.5-.8.5s-.7.2-1.1.3c-1 .3-2 .3-3 .7-.3.2-.5-.3-.9 0-.1.1-.5.3-.9.3-.3-.1-.5.2-.9.2-.6 0-1 .5-1.3 1.1l-.2-.2c-.4.2-.5.4-.1.8l-.4.3-.2-.2c-.4.2-.3.8-.7.9-.4 0-.7 0-1 .2-.4-.1 0-.5-.3-.7-.2.1-.2.4-.6.2 0-.3-.1-.6.2-1C3 33 2.5 33 2 33s-1-.2-1.2-.7c-.1-.5-.8-.5-.8-1l.2-.3c.3-.5.6-.9 1.2-1 1-.2 2-.8 2.9-1 .8-.1.9-.7 1-1.2l.3-1.2c0-1.1.5-2.2.4-3.4.5-.7.1-1.6.4-2.4.3-.8 0-1.7.1-2.5.4-1.4.2-2.8.2-4.3V9.6c0-1.4.2-3 0-4.4-.2-1.4-.1-2.8-.2-4.3l1-.9.6.7c.3-.5.7-.4 1-.3 1 .5 2 1.1 2.6 2.2l3 5 2.5 3.7c1 1.6 2 3.2 3.3 4.6.5.6.8 1.3 1.4 1.8.3.2-.1.7.5.8.3 0 .3.5.5.7l.7.8.5.8c.3.2.4.6.6.8.5.6.8 1.2 1.2 1.9.4.8.4 1.6 0 2.4l-.2.2c-.3.3 0 .7-.3.9-.7.4-1.2 1-2 1.1l-.9.4c-.3.2-.6 0-1 .2-.2.2-.6.3-.9-.1" fill="#000" fill-rule="evenodd"/>
</svg>
