<svg width="29" height="25" viewBox="0 0 29 25" xmlns="http://www.w3.org/2000/svg">
  <g fill="#000" fill-rule="evenodd">
    <path d="M23.2 0a3 3 0 011.7.8c.1.1.2.5 0 .6-.7.6-.6 1.4-.5 2.1.3 4.6 1.3 9 2.7 13.4l1.6 4.7c0 .2.2.4 0 .7-.3.2-.5 0-.7 0-1.5 0-1.8-1.1-2.3-2-2.5-5.1-3.7-10.4-4-16 0-1 0-2 .3-3 .2-.6.5-1.2 1.2-1.3M10.9 9.5c.2-.5.4-.6.9-.5.4.2.6.4.6.9 0 1 .7 2 1.2 2.8 1.8 3.2 3.9 6.2 5.9 9.2.2.3.3.5.2.8-.2.4-.5 0-.7.1-.8.3-1.2-.2-1.6-.7-2-2.5-4-5-5.6-7.8-.5-.9-1-1.8-1.3-2.8-.2-.5.1-1-.3-1.4-.2-.2 0-.6.1-.9.1-.1.3-.3.5-.3.2.1 0 .3.1.6M.8 16.6c.8 0 1.4.4 1.8 1 1 1.1 2.3 1.9 3.5 2.6 1.7 1 3.5 1.8 5.3 2.5l1.3.7c.2.1.3.3.2.5-.1.2-.3.2-.5.2-1.7.1-3.2-.8-4.7-1.4-2-.8-4-1.8-5.7-3.2a9 9 0 01-1.7-1.7c-.3-.3-.4-.6-.2-1 .2-.3.5-.2.7-.2"/>
  </g>
</svg>
