<svg xmlns="http://www.w3.org/2000/svg" width="48" height="46" viewBox="0 0 48 46"><title>75</title><g fill="#000" fill-rule="evenodd"><path d="M3.24 43.115c-.693-1.474-1.388-3.089-2.214-4.633-.289-.54-.74-.948-.335-1.58.083-.13.2-.329.313-.336 1.919-.113 3.591-1.053 5.4-1.525 1.212-.317 2.455-.413 3.653.134.24.11.398.405.593.614-.207.184-.384.455-.626.538a184.335 184.335 0 0 1-5.32 1.75c-.559.174-.536.42-.339.897.455 1.1.823 2.233 1.265 3.338.189.473.472.908.716 1.357.02.038.102.047.114.083.125.372.434.981.322 1.075-.324.27-.816.452-1.246.455-1.332.01-1.624-1.21-2.296-2.167"/><path d="M27.468 36.222l.18.135 1.156-1.922-.222-.136-1.114 1.923m12.554-8.906l.15.093 2.123-2.847-.206-.155-2.067 2.909m-12.258-.388c-.54-.632-1.068-1.275-1.624-1.893-.343-.381-.684-.337-1.066.011-1.194 1.092-1.501 2.899-.777 4.434.79 1.674 2.271 2.132 3.893 2.343.127.016.385-.289.427-.48.342-1.577-.12-3.004-.853-4.415m7.622 2.911c3.84-2.035 6.169-5.305 7.626-9.329 1.658-4.58 2.244-9.345 2.366-14.198.037-1.47.036-2.941.108-4.408.02-.394.152-.86.405-1.133.174-.188.642-.098.98-.133.01.208.029.416.027.622-.007.558-.068 1.118-.025 1.672.139 1.8.346 3.598.466 5.4.082 1.214.111 2.437.07 3.651-.027.767-.266 1.522-.34 2.29-.117 1.217-.063 2.464-.287 3.656-.35 1.857-.71 3.74-1.353 5.502-1.421 3.897-3.947 6.859-7.71 8.727-1.751.87-3.449 1.798-5.429 2.058-.216.028-.476.331-.568.567-.92 2.371-2.477 4.236-4.556 5.617-1.556 1.034-3.136 2.12-4.86 2.786-1.446.56-3.109.675-4.69.752-1.405.069-2.843-.098-4.244-.316-1.996-.311-3.794-1.187-5.38-2.452-.228-.182-.32-.708-.264-1.036.062-.364.424-.416.846-.457 1.322-.13 2.319.617 3.384 1.145 2.017 1 4.122 1.064 6.191.549 3.532-.878 6.334-2.984 8.64-5.744 1.245-1.491 1.191-1.548-.624-2.033-2.388-.638-4.27-1.96-5.41-4.203-1.323-2.604-.278-5.574 2.323-6.829.817-.393 1.63-.215 2.43-.01 1.819.463 3.286 1.506 4.441 2.982 1.195 1.528 2.191 3.153 2.313 5.167.03.487.306.547.71.338.8-.412 1.609-.8 2.414-1.2"/></g></svg>