<svg width="360" height="320" viewBox="0 0 360 320" xmlns="http://www.w3.org/2000/svg">
  <g fill="none" fill-rule="evenodd">
    <path d="M356.8 82c-.6.7-1 .7-1.7.5V82c-.4-.6-.8-1.2-1-1.8l.2-.6c0-.3 0-.7.3-.9l1.3-1 2-.7.6.3c.2.6.5 1.1.6 1.7v1.7c-1 .3-2 .7-2.3 1.5M345 59c-.2.4.2.9 0 1.4-.2.2-.2.5-.5.7-.3.1-.6.4-.9.7v-.2c-.5 0-.6 0-1.2.5l-1.9-.5c-.2-.5-.7-.9-1-1.4.3-.8-.2-1.7.6-2.4l.8-.3c0 .2 0 .3.2.4.3.5.8.5 1.3.4l1.6-.4.7.4-.8.4c.3.6.7 0 1 .2M354.3 93l.3.2.2 1.3c-.2.5-.5 1.1-1.2 1.3-.2.5-.7.6-1 1-.1.4-.4.7-.7 1h-.7l-1-2c0-1.4.8-2 1.5-2.6.8-.8 1.3-1 2.6-1v.8M315.9 61.3c-.3.8-1.2 1.2-2.4 1l-.1-.2h-.3l-1-1.2v-1h.6l.4.2.6-.8v-1.8l1-.2.4.3c.5 1 1.2 2 .8 3.7M316 90.8c.4 0 .6-.2.9-.3l1 .1-.3.8.4.1c.5.1 0 .6.3.9.2 0 0 .6.1 1-.1.5-.5.8-1.1 1v.4h-.4v-.2c-.8.2-1-.5-1.3-1l-.8-1 .1-1.7c.5-.8.6-1 1.5-1l-.3 1M332.1 97.5l-.7-.8.1-.3-1-1.1.5-1.7c.6-.2 1 0 1.5-.4h1v.6l-.3.2v.2l.7-.3c0 .6.3 1.2.2 1.7-.1.4-.1 1-.6 1.3-.4.4-1 0-1.4.6M316.5 74.3l-1-.6c-.4.2-.3 1-1.2.7a2.8 2.8 0 01-1.2-2.5l.4-.7 1-.3.2.3c.5-.2.7.2 1 .3.6.9 1.1 1.6.8 2.8M301.5 87.3l.4.2-.1.5c.4.2 1 .5.9 1 0 .4.5.7.3 1.3l-1 1.6c-.8 0-.8-1-1.4-1.2-.3-.5-.2-1-.4-1.5-.1-.3-.1-.7.1-1l.4-.7.8-.2zM299.7 72.2c.5-.5-.2-1.2.4-1.7l1.3-.3 1 1.7c.4.6.2 1.3.2 2l-.7.6c-1-.4-1.6-1.3-2.2-2.3M321 106.4c-.1-.7-.6-1-1-1.4l-.1-1 .9-1.6h.9l.8.7c.6.9.1 1.7 0 2.7l-1.5.6M311.1 84l.3.2-.5 1c-.3 0-.6.2-.8.3l-1.4-1.4.2-.5-.2-.3c.1-.9 1.1-1 1.6-1.5.4.3 1-.4 1.3.2v.4l.4.3.2.7-1 .5M344 88.1l.5.1c0 1 .5 2-.2 2.9h-1.4l-.6-.9c0-.4 0-.9-.2-1.3l.6-1.6 1-.1.5.3-.2.6M337.3 105.4l-.5.3c.2.3.4.5.9.3l-.2.4-.6.5c.5 0 .5 0 1-.3-.1.5-.1 1-.3 1.4l-.8 1c0-.2-.2-.3-.2-.3-.5 0-.7-.2-1-.5-.1-.4-.4-.4-.8-.2 0-.2 0-.4-.2-.5l.6-.6-.3-.5 1-1 1.3-.1v.1zM339.7 72.8l-.5-.9c-.4-.6-.4-.6-.2-1.4v-.6-.9l.2-.7a2 2 0 011-.2c.8 1.5 1 1.3.5 4l-1 .7M353.7 67.4l.4.2c.2 1 .1 2.1-.6 2.9l-.9-.4-.2-1c-.3-.3-.6-.5-.6-.7 0-.7.3-1.3.7-2h1.1l.1 1M347.9 76.3l-.3.5.7.5-.3.4c.8 1 .2 1.6-.2 2.4-1.3-.5-1.6-1.6-1.8-2.6l.4-1.4c.4-.2 1-.2 1.5.2M325.7 65.4h1c.2.8 1 1.5 1 2.3l-.3 1-.5.3h-.5l-.7-1c-.4-.8-.6-1.7 0-2.6M303.9 100l-.1-1.1.4-.4-.1-.1 1.5-.7c1 .9.6 1.9.5 2.8l-.9.6-1.3-1M325.4 55.4l.9-.2c.4.3 1 .5 1 1.2.2 1 .3 1.1.2 1.6v.1c-.3 0-.6.7-1.2.2a2 2 0 00-.7-1c-.3-.2-.4-.8-.6-1.2l.5-.2-.1-.5" fill="#000"/>
    <path d="M277.3 86.2h-.2-.1l-.7.4h-.2c-.6.2-1.2.7-1.9.9-.2 0-.4.5-.6.3l-.1.3-.1.1c-.2.2-.4 0-.6.3l-.1.3h.2l.1-.2c.6-.2 1.1-.7 1.7-.8l.8-.4.4-.3.3-.1h.1c.4 0 .8-.2 1-.8zm-8 .6l.3-.4-.6-.1 1.2-.4v.3h-.1l.3.2c.2 0 .3-.4.5 0 .3-.2.6-.2.7-.6l-.3-.4h.3c.4 0 .5-.1 1-.5H273c.2-.1.2-.2.2-.5l-.3.1c-.6.2-.6.3-1 .6 0 0 0-.2-.2-.2-.3 0-.3.4-.6.3-.4-.2-.4.3-.6.4l-.3-.4h-.3l-.4.6-.3-.2c-.5 0-.6.5-1 .5l-.2.3.4.1-.1.3h.2c.4-.2.7-.1 1 0zm25.8 27h.3l.1-.1 2.2-.8c.4-.1.7-.4 1-.6.3-.1.7-.2.8-.4l.1-.1c.2-.3.9 0 .8-.6.7-.2 1.2-.7 1.8-1l.9-.5.2-.1.9-.6.2-.2c.3-.3.8-.3.9-.9 0-.1.4-.3.5-.2.4.2.4 0 .4-.3.4 0 .4-.5.8-.6h.1c.3 0 .5-.2.6-.4.2-.1.2-.3 0-.3l-.6.4h-.1c-.3.1-.3.6-.8.5-.2 0-.3.4-.6.3l-.2.1c-1 .6-1.8 1.3-2.8 1.8l-1 .7c-.3 0-.5.2-.8.4l-.2.1-1 .7c-1.5.9-3 1.6-4.5 2.7zm-4.1-2.2c.4 0 .7.1.8 0 .5-.4 1-.5 1.6-.7l1.6-.8.5-.2c.4-.2.8-.4 1-.7.7-.6 1.5-1 2.2-1.4.7-.4 1.3-1 2.1-1.3.3 0 .5-.3.7-.5l.4-.4.6-.5 1-1c.3-.2.6-.3.8-.6l.2-.1 1-.9c.5-.6 1.3-1 1.9-1.6l.1-.3.4-.1.4-.2-.2-.1v-.1c.3-.3.4-.7.6-1l-.7.7c-.5.2-.6.6-1 .7-.3.1-.4.5-.7.7l-.6.5c0 .2 0 .2-.3.4l-.4.2-.5.5c-.5.6-1 1-1.7 1.5l-.3.2-1.6 1.2-1.4.8-.3.2-2.4 1.5-1.6 1-1.5.8-1.6.9c-.4.1-.7.4-1.1.7zm-63.3-51.4c-.3-.4-.6-.6-1-.7h-.7c-.3-.3-.6-.1-.8-.2-.3-.1-.5 0-.7.2-.1.1-.3.1-.4-.2l-.4.4v-.2l.1-.2c.3-.3.6-.5 1-.3h.1c1-.3 1.2-.2 2.5 0 .3 0 .6-.2 1 0 .4.3 1 .3 1.5.7h.2c.4.1 1 .1 1.2.5.4 0 .7.2 1 .4h.2c.5.2.9.7 1.5.7l.3.2c.2.2.4.5.8.5.2 0 .4.4.7.4.3 0 .5.3.7.4.5.3 1 .6 1.5.7.3.1 0 .3 0 .6l.7-.2.1.1.3.2h1.2l.1.2 1.2-.2V64.8h.5v.3c.3 0 .6.3.9 0l-.4-.2-.2-.6h.5c.4.2.8.2 1.1.2h1.2l.1-.2c.3.2.6 0 .8 0l.3-.1c.4 0 .8 0 1.2-.2h.2c.3-.2.6-.2.9 0V64c0-.3.3-.2.4-.4.5 0 1-.5 1.6-.4l.5-.8v.3c.2-.1.5 0 .5-.4l.5-.5c.3 0 .4-.2.5-.4.6-.7 1.3-1.3 1.7-2L257 56c.2-.2.2-.6.5-.9.2 0 .4 0 .5-.2l.1-.5.7-.5c.3-.5.8-.8 1.2-1.2l.1-.1c.7-.1 1.2-.7 1.8-1 1-.6 2-1.1 3.1-1.5l.5-.2c1-.4 2-.7 3.2-.6h.5l.6.1h1.2c.2.3.6.4 1 .4.7 0 1.1.4 1.7.3.5-.1 1 0 1.5.2l1.4.4c.4.1.7 0 1 .3h.5l.5.3h.1c.3 0 .5.2.6.3h.1c.4.3.6.7 1 .7.2 0 .3.2.4.3 0 .2 0 .4.3.4l.3.3c.5.5.9 1.1 1 1.9v.2c0 .2 0 .4.2.5v.1c.3.2.5.5.5.8 0 .3.3.4.4.7v.1c0 .2.3.3.3.4 0 .7.4 1.2.5 1.8.3.2 0 .5 0 .5.4 0 .3.1.3.3v.6l.5.1v.7c.1.3 0 .7.4.9V63.5c.4.2.3.7.5 1h.1s.1 0 0 .1c0 .5.4 1 .6 1.3l.2 1.1-.4.3h.7c.3.5.7 1 .6 1.6l.3-.2.1.5c.2.2.4.3.5.6h.3l.1.2c-.3.3.2.4.2.6v.5c.2-.2.4-.2.6-.1l.3.1.1.2c.1.3.3.4.6.4.2 0 .3.3.5.4.1.2-.3.4 0 .5.3 0 .3-.2.3-.4.5 0-.1.5.3.7.2 0 .3.3.4.5.4-.2 0-.5.2-.7h.5v.1c0 .1.1.2.2.1 0 0 0-.3.2-.2l.4.1c.5.3 1 .3 1.5.2l.6-.2 1.1-.4.6-.2h.7c0-.2.1-.4.3-.5h.1l1.8-.7c.5 0 .9-.2 1.3-.4l1.4-.4h.1l-.4 1 .2-.1h.1l.2-.4c.2.2.5-.2.7.2l.7-.7-1.2.2c0-.4.4-.3.6-.5.8 0 1.4-.5 2.1-.6l.6.5.3-.4.3.5.4-.3.3.1.3.1h.5l.3.3h.1c.7 0 1.3.3 1.8.5v.2l.2.3.3-.3.4.2c.4.2.4.2.6.5.2-.1.5-.2.8 0 .7.5 1.5.8 2 1.4.2 0 .6 0 .5.3.4-.2.2.3.4.3h.2c.1 0 .2 0 .2.3l.8.3v.2c0 .1 0 .2.3.3.2 0 .3.2.1.4h.1c.3 0 .1.6.4.4l.2-.1v.8l.6-.4v.4c-.1.2 0 .3.1.4.2 0 .2-.2.2-.4.4 0 .2.4.3.5.6.2 1 .6 1.3 1l.1.2c.3.4.7.8.5 1.3 0 .1.4 0 .3.3l.4-.1-.1.6h.2l.2.2v.3c.5.2.4.6.4 1 0 .3.2.6.4 1-.3.4 0 .6.5 1l-.8-.1v.3h.5l.1.9.2.7c0 .3-.2.4 0 .7 0 0 0 .4-.2.5-.2.2-.2.3-.1.6v.9c0 .9.3 1.8.1 2.7.4.7 0 1.4.1 2 0 .6-.3 1.1-.2 1.7l-.2.2c-.2.2-.3.4-.2.6v.1c0 .6-.2 1.2-.4 1.7-.2.4-.3 1-.7 1.4 0 .5-.4 1-.5 1.4 0 .3-.2.2-.3.3l-.2.7-.1.4-.3.4-.1.1c-.2.2-.3.3-.3.6l-.2.1-.2.3c.1.3-.1.3-.3.5l-.4.8-.5.5-.2.3c-.2.3-.7.5-.7 1-.5 0-.5.5-.7.8l-.7.6c0 .2-.4.2-.5.4l-.4.5c-.1.2-.5.1-.4.4l-.4.2-.6-.2.2.6-.4.4-.3.3-1 1.1-1.5 1.6-1.3 1.1-.3.2-.1.1c-.2 0-.5 0-.5.3l-.4.3c-.2.3-.4.4-.7.5l-1 .7-.2.2-1.2 1-1 .6-1.6 1.1c-1.2.7-2.4 1.5-3.7 2l-1.8.9-1.2.4c-1.3.5-2.5 1.3-3.9 1.5-1.3.7-2.8.7-4 1.3-.6-.1-1 .2-1.5.3l-1 .1-.4.1c-1 .3-2 .3-3 .4h-1.2v.2c-1.7.2-3.4.4-5 .4l-2.7.2a41.8 41.8 0 01-16.3-3.1l-4.6-1.9-1.6-.8-1.4-.7-1.3-.6-.8-.5-.2-.1-1-.6c-.4-.2-.7-.5-1.1-.5-.4-.4-1-.5-1.4-.8l-.2-.1-1.7-.9c-.5-.3-1-.7-1.6-.7-.6-.6-1.4-.8-2-1.3-.8-.4-1.6-.8-2.2-1.4-.6 0-1-.6-1.4-.9-1-.5-1.7-1.2-2.6-2l-.3-.2-2.7-2.2-.9-1c-.3-.4-.8-.5-.9-1-.5-.2-.6-.8-1-1l-.6-.7v-.1c-.3-.6-.8-1-1-1.6l-1.1-1.5c0-.2-.3-.4 0-.6l-.2-.2c-.6-.5-.8-1.3-1.2-2l-1.3-2.5c-.5-1-1.2-2-1.5-3-.2-.7-.6-1.3-.9-2l-.6-1.7c-.1-.3.1-.8-.4-1l-.1-.7a8.7 8.7 0 00-.3-1l-.1-.4c-.5-1.3-.8-2.7-.9-4l-.2-1.5v-4.8l.3-1.3.4-2 .3-.9 1-2.2.8-1.3.4-.6 1.5-2 .8-1.4c0-.3.3-.4.4-.6l.3-.4c.2-.4.3-.8.8-1 0 0 0-.3.2-.3.2-.2.5-.5.8-.4H227c.2-.4.5-.2.8-.1z" fill="#C6D7E4" fill-rule="nonzero"/>
    <path d="M235.3 99.2c.3 0 .6 0 .9-.2.2 0 .5-.3.7-.5l.6-1a1.5 1.5 0 010-.5v-.3-.3l1-1c.3-.5.5-1 .5-1.5l.2-.1.1-.2.2-.2h.2a35.3 35.3 0 014.2-6l1.4-1.9c0-.3 0-.5.2-.7.2-.2.3-.5.3-.7h-.1v-.2-.3-.2l-.3-.6a15.6 15.6 0 00-.4-1h-.5-.3l-.3-.2a2 2 0 00-.5-.1 32.2 32.2 0 00-5.4 6.9l-1.7 2.6c-.2-.3-.2-.7-.3-1.2a165 165 0 01-.5-4.5c-.1-.5-.3-1-.6-1.3-.2-.4-.5-.8-1-1 .1-.1.1-.3 0-.4 0-.1 0-.3-.2-.4l-.4-.3-.6-.2-.5.4-.5.6-.1.8v1.3a54.8 54.8 0 00.2 2.7v2.7l.2.5.1.5.1 1.2a17.3 17.3 0 00.6 2.7l.2 1.3.2.2.2.3v1c.2 0 .3 0 .4.2a4.6 4.6 0 01.5.5c0 .2.1.2.2.3l.8.3zM252.9 99.3c.3 0 .6 0 1-.2a3.5 3.5 0 001.8-2v-.2-.8a13 13 0 00-.2-1.4l1-.6.7-.8.2-.4-.4-.1-.2-.2-.2-.2-.5-.1-.2-.3-.1-.2h-.3a7.9 7.9 0 00-.5.1h-.3l-.3-1a84 84 0 01-1-5.3l-.6-.3a9.8 9.8 0 00-1.2-.4h-.4l-.3-.3-.2.4-1 1.3c-.3.4-.7.6-1.2.8h-.3-.2-.2l-.4.3-.5.7a17.8 17.8 0 00-.7 1.4c0 .3-.2.5-.4.8V90.6a33 33 0 00-.8 1.5 278.9 278.9 0 00-2 4.6v.4l-.3.2.3.3v.1l.1.2v.3l.3.4.3.3.4.3h.9l.2-.1.1-.3h.1l.2-.1.2-.2c.1 0 .2 0 .3-.2l.1-.2v-.6a6.7 6.7 0 01.4-1l.1-.4.1-.1h.1l.1-.5v-.1l.1-.1h.2l.1-.3.2-.6.2.4v.5a2 2 0 00.4.4v.3h.3a6.7 6.7 0 00.7.1h1a10.5 10.5 0 001.5-.4h.8c0 .4 0 .7-.2.9l-.8.4-.6.1.4.5.1.1.1.2.3.3v.6h.2a1.6 1.6 0 01.3.2l.2.2.4.1z" fill="#272729" fill-rule="nonzero"/>
    <path d="M248.4 93l.3-.4.2-.4a13.2 13.2 0 011.7-2.3l.1-.2a47.6 47.6 0 01.8 3 13.6 13.6 0 01-2.8.3h-.3zM260.4 99.4l1.6-.2 1.4-.5.6-.1a7.5 7.5 0 001.1 0l.6-.1h.5l1.3.1h1.3c0-.2.1-.2.2-.3l.5-.2V98v-.3l-.1-.3-.2-1a2 2 0 00-.4-.3 9.7 9.7 0 00-1-.4c-.3 0-.4-.2-.6-.4h-.3-.2l-.3-.1h-1.2l-1.7.1a4 4 0 00-1.5.4 2 2 0 00-.5 0h-.2-.2l.2-1.5a19.1 19.1 0 01.9-2.1l.2-1 .2-.2a5.8 5.8 0 00.2-.5v-.2l.3-.9a13.7 13.7 0 01.6-1.3l.2-.8.2-.2V86a4.6 4.6 0 00-.6-.7l-.2-.2a3 3 0 01-1-.2l-1-.4h-.2l-.3.3a23.8 23.8 0 01-1.4 4.3 57.2 57.2 0 00-2 6.3 4.6 4.6 0 00.3 1.8l.5.7v.3l.2.2.2.4c.4.4 1 .6 1.8.6zM275 99a121 121 0 003.2-1.5 6.2 6.2 0 002-2.3l.3-.3h.3v-.6l.6.1v-.2l.2-.2a14.4 14.4 0 00.4-.6l.5-1 .8-1.5a148.2 148.2 0 00.2-3 32 32 0 00-.4-1.3l-.2-1a12.3 12.3 0 00-1.2-1c-.4.1-.6.4-.7.7v.6c0 .2 0 .4-.3.5a13.9 13.9 0 01-.6 2.9c-.1.5-.3 1-.6 1.4l-.8 1.3a15.5 15.5 0 01-2 1.6l-1 .6-1.3.4h-.4l-.1-.3-.2-1a7 7 0 01.5-3.3c0-.2 0-.5-.2-.8a8.8 8.8 0 00-.5-1.3l-.1-.4c-.3 0-.4-.2-.5-.4-.2-.1-.3-.3-.3-.4l-.3-.4-.4-.1-.3.4-.5.2-.2 1-.1.6-.2.9v.3a57.2 57.2 0 00-.3 5.4v.3l.2.1v.2l.6.5-.4.1a9.4 9.4 0 01.5 1l.4.8c.1.2.3.4.6.5h.2l.3.3a10.6 10.6 0 001.6.1l.7.1zM286.9 99.3a9.9 9.9 0 002.8-.3h.3a66 66 0 013.2-.6c.4 0 .8-.3 1.1-.5.3-.3.6-.7.8-1.2h-.2v-.3l-.1-.2-.2-.2-.3-.1-.3-.3-.3-.3c0-.2-.2-.2-.3-.3l-1.2.3c-.4 0-.8.2-1 .3a8.6 8.6 0 00-2.3.2h-2.3a9.3 9.3 0 011.2-2.3l.7.1.6.1h.6l.4-.1h1.4a4.7 4.7 0 001.6-.9l.8-.5v-.5-.4h-.5l-.3-.3a13.7 13.7 0 01-.7-.8V90l-1.9.2h-1.8v-.4l-.2-.4.5-.1.3-.2.7-.1h.6l1.5-.6a222.3 222.3 0 013-.7c.4-.2.8-.6 1.1-1.1v-.2-.2-.1-.3l-.8-.5c-.3-.1-.5-.4-.6-.6 0 .1 0 .2-.1.1l-.2.1c-.2 0-.3 0-.4-.2a26.6 26.6 0 01-3.3.5 20.5 20.5 0 00-4.1 1l-.9.2-.7.4a2 2 0 00-.6.5l.2.8.1.8.2.7.5.7a9 9 0 01-.7 1.5 15.7 15.7 0 00-.6 1.5h-.2c0 .2 0 .2-.2.2l-.1.6c-.2.2-.3.4-.3.7v.7a10 10 0 00.2 1.6l.1.7c.2 0 .3.1.3.3l.3.4c.3.3.6.5 1.1.6l1.5.2zM298.6 99.4h.4c.2 0 .3-.2.4-.3v.2h.3a18.1 18.1 0 003.4-1.6c.5-.3 1-.7 1.4-1.2.4-.4.7-1 1-1.5l.1-1v-1l-.5-.7-.3-.6-.2-.1c-.1 0-.2 0-.2-.2V91l-.3-.5-.5-.4-.6-.1-.2-.4a17.8 17.8 0 01-.9-.3.8.8 0 01-.4-.2v-.2-.1l.7-.1.6-.3h.5l.7-.2h.6l.5.1 1.6-.1 1.7.1.5-.2.5-.4V87l-.4-.5-.2-.4-.2-.4a13.7 13.7 0 01-.6-.9 7 7 0 00-2.4-.2c-.8 0-1.6.1-2.3.3a28.1 28.1 0 00-5 1.7l-1 .4a4 4 0 00-.8.6 2 2 0 00-.5.9v.4l-.1.5.1.4v.5c0 .1 0 .3.2.4l.3.4h.2l.1.2c.5.2 1 .4 1.5.4l1.5.2.6.1h.5l1 .4c.3 0 .6.2 1 .4h.2v.2c.2 0 .2.1.2.2l-.2.4-.3.2-.2.3-.2.4-1.2.5c-.3.3-.7.5-1.2.6l-1.3.5h-1.5l-.4.4v.5a118 118 0 00.4 2l.3.4h1.1z" fill="#272729" fill-rule="nonzero"/>
    <path d="M90 34v.7l.5 1.1c.1.6.4 1 .7 1.6l.1.3.2.2.3.4v.1s.1.1.2 0v-.2c-.3-.3-.4-.6-.6-1l-.1-.2-.6-1.3c0-.3-.2-.5-.3-.8 0-.3-.1-.6-.4-.9zM119 48.4h-.3c-.1 0-.2 0-.3.2-.2 0-.2.2-.2.4s-.1.1-.2.2c0 .3 0 .6.3 1 .2-.7.6-1.1.7-1.8zM106 14c.9-.3 2.7-1 3-1.5-.2.1-.5.1-.6.3l-.2.1-.4.1-.4.2-.5.2-.3.2-.4.1c-.3 0-.3.2-.5.2l-.6.3c-.1 0-.1 0 0 .1l.6-.2h.3V14zM101 12.5c.6 0 .9-.4 1.3-.5l1.4-.6 1.3-.6h-.3c-.3.1-.8.1-1 .4l-.8.2-.4.1a1 1 0 01-.5.3l-.5.2c0 .2 0 .2-.4.3h.1l-.2.2zM115 24.2c-.6.5-1 1.2-1.5 1.8l-1.5 2.4v.2c1.1-1.4 2-2.9 3-4.3v-.1zM158 44.7l.4-.2.2-.1.5-.4.6-.5 1.3-1 1.7-1.8.3-.4c-1.7 1.4-3.2 3-5 4.3v.1zM132.2 4.4h.2l-.1-.2c.3 0 .1-.2.4-.3h1.2c.1-.1.1-.1 0-.2h-.8l-.2-.1h-3.5-.3v.1s-.1.1 0 .2h.5c.2.1 0 .2 0 .2l.5.1.1.2c.1 0 0-.3.2-.3h.2l.4-.1c0-.1-.2 0-.2-.2l.3.1.4.2.2-.1c.2 0 .2.2.3.3l-.2.1h.4zM128 14.3c0 .3-.4.5-.5.8 0 .3-.2.5-.3.7v.3l-.4 1-.4.8-.1.5-.2.5-.3.5-.2.6c-.2.2 0 .4-.3.6-.1 0 0 .1 0 .2-.2.2-.1.5-.3.7h.1l.1-.1.7-1.4.2-.5c.3-.3.3-.7.4-1l.4-1.2.4-1 .6-1.4c0-.2.2-.4 0-.6zM165.2 18.8l-.2.1v.1l.2.2h.1l.5 1c0 .2 0 .4.3.6l1.3 1.1h.1v.1c0 .2.2.2.2.2l.1.1h.2l-1-1.5-1.2-1.3-.5-.7h-.1zM134 40.3c-.3 0-.2.2-.4.2l-.2.2-.1.1-.7.6-.7.6-.7.6-.4.3-.7.7-.2.2c-.3.3-.8.5-.9.8.3.2.5.2.7 0l1-.9.4-.4.2-.2c.5-.3.8-.7 1.2-1.1l1.4-1.5c.1 0 .1-.1 0-.2z" fill="#C6D7E4" fill-rule="nonzero"/>
    <path d="M110.4 11.6l-.9.3-.9.4c-.1 0 0 .2-.3.2-.3.4-.8.6-1.3.8h-.4l.1.1-.3.1h.2c0 .3 0 .3-.3.4h-.2l.1.2s-.3 0-.2.2c.4 0 .6-.3.9-.4l.7-.3.3-.2 1-.5 1-.6.3-.2h.2l.2-.2.4-.2c-.2-.2-.4.1-.6 0zM115 1h-.3l-1.3.3a35.4 35.4 0 00-7.7 3l-1.6.8-1.4 1-1.3.7-.2.2h-.1l-.1.1h.2l.8-.5 1.4-.8.4-.3 1-.5 2.3-1.2 3.3-1.3c.2-.2.5-.2.7-.3l1.7-.6 1.3-.4.9-.3zM171.8 42.7H171.5c.2.1.2.2.2.3l-.4.1.2.1-.1.4h-.3s.2.1 0 .2c-.1.2-.2.5-.5.7l-.2.2-.2.4-1.2 1.3-1.3 1.3-.3.3c-.5.4-.8.8-1.3 1-.1.1-.1.2 0 .2 2-1.2 3.4-2.7 4.6-4.3h.2l.2-.2.1-.2v-.3l.3-.4h.2c.2-.2.4-.4.3-.6.2 0 .2-.2.3-.2 0-.1.2-.2.1-.3-.2-.2 0-.3.1-.4l.1.1c0-.1.2-.1.2-.3h-.3l.2-.3.2-.3v-.3c0 .1-.1.3-.3.3v.2l-.3.1.2.1-.7.8zM166 43.8c-.4.2-.5.4-.8.7l-.7.7-.8.7-1 1h-.2l-.1.2c-.1.3-.4.4-.7.6-.2.2-.3.5-.6.6 0 0-.2 0-.2.2l-1.1 1c-.2 0-.3.2-.4.3l-.4.3c.3 0 .3-.1.4-.2a19.7 19.7 0 004-3l.6-.5a81 81 0 002-2.6zM145.3 58.5h.5v-.3c.3 0 .2-.3.5-.4.3 0 .5-.3.7-.4l-.3-.1c-.2 0-.3.3-.6.2v.2c-.2 0-.4.2-.5.3-.2 0-.4 0-.4.3-.3 0-.3.1-.4.2h-.1l-.5.3-.2.3h-.2l-.4.4-.3.1-.2.2-.4.3c0 .2-.3.2-.5.3h.1c0 .2-.2 0-.2.1l-.1.2-.2.2-.1.1-.6.4-2.4 1.6h-.1v.1c-.4 0-.6.2-.8.4h-.1l-.9.5c-.4.2-.9.4-1.2.7h-.1c-.3 0-.4.3-.6.3-.3 0-.4.2-.7.3h.3c.3 0 .3 0 .5-.2h.6c0-.1 0-.3.3-.3h.2c.2-.3.5-.4.8-.5l.2-.1c.1-.1.3-.2.5-.1.2-.2.3-.4.6-.4h.1l.2-.2.5-.2v-.1l.4-.2.4-.3.3-.2h.4l-.3-.1c.3 0 .3-.2.5-.3l.6-.4c0-.2.2-.1.2-.3 0-.1.3 0 .4 0v-.1l.7-.5h.2c.1-.1-.3-.2-.1-.3 0 0 0 .1.2 0v-.2l.2.1h.1c0-.2 0-.4.3-.5l.4-.2.4-.3 1.2-.9z" fill="#C6D7E4" fill-rule="nonzero"/>
    <path d="M175.4 35.5c.2 0 .2.2.1.2l-.6 1.7-.3 1-.3.7-.3.7c0 .3-.2.5-.3.7a8 8 0 01-.5 1v.2l-.4.3v.2l-.4.6-.8 1.1-.6.9a21.4 21.4 0 01-3.3 3.6l-.4.3-1 .8-.4.2-1.1.7-1.2.6c-1 .5-1.8 1-2.8 1.3l-1.6.8-2 .8-1.2.5-1.2.4-1.2.4-1.1.4c-.2.2-.6.2-.9.3l-.5.2-.3.1-.8.4-1.6.7-1 .5-1.3.8-.3.2a3 3 0 01-.6.4c-.2 0-.2.2-.4.3l-.3.2-.4.3-.2.2h-.3v.2l-.2.1c-.2 0-.2.2-.3.2-.3.2-.3.5-.7.5l-.5.5c-.2.2-.3.3-.5.3-.1 0 0 .2-.3.2-.2.3-.7.5-1.1.7-.6.4-1.2.8-2 1.1l-1 .5-1 .5-1.5.6-1.1.4-1.8.5-.8.2h-.3l-.4.2h-.5l-.1.1-.4.1-1.5.3h-.5c-.6 0-1.1.3-1.7.3h-.9l-.3.1h-.7l-.8.1h-.4a2 2 0 00-.5 0h-1.4c-.2 0-.5.2-.7 0H118h-1.6l-1-.2-.8-.1-1.4-.2c-.1 0-.1-.3-.3-.1l-.5-.1-.2-.2-.8-.1-1.6-.5-.6-.2c-.4-.2-1-.4-1.3-.7h-.4l-1.8-1.2-.8-.5-1.2-1-.2-.2-.8-.8c-.5-.5-1-1-1.3-1.7l-.3-.7-.3-.7-.1-.4-.1-.5-.2-.3v-.8-.2s-.3-.2 0-.3c-.3 0-.2-.2-.2-.3V55v-.3-.6c-.2-.3-.1-.5-.1-.7 0-.3-.2-.4-.1-.6v-.7c-.1-.2 0-.4-.2-.6V51l-.4-1.4-.6-1.7-.5-1-.7-1-1.2-1.2-1.3-1.1-.6-.5-.7-.5-1.7-1.3c-.7-.5-1.2-1.2-1.9-1.8l-.7-.7-.1-.2c-.5-.5-.8-1-1.2-1.6l-1-1.6-.4-1.1c-.1-.2 0-.4-.2-.5 0-.4-.3-.7-.2-1-.2-.3-.2-.5-.1-.7l-.2-.5V31c-.1-.3 0-.6 0-.8v-1.9c0-.2-.2-.4 0-.6l.1-.5c0-.1-.1-.1 0-.2v-.5l.1-.5c.2-.1-.2-.2 0-.4l.2-.6v-.5c.2-.2 0-.4.2-.5l.1-.7V23l.2-.3a12.6 12.6 0 00.4-1.2l.1-.1c0-.5.3-1 .5-1.4l.1-.4.3-.5.1-.2c.3-.2.4-.5.5-.7l.2-.4h.1c0-.4.3-.6.5-.9l.7-.9c.3-.6.9-1.1 1.2-1.7l.5-.5-.1-.2.3-.2c0-.3.3-.4.5-.7l1-1 .4-.4 1-1 3.8-2.7 1.6-1L102 6l3.4-1.6 2.7-1.1a29.3 29.3 0 014.7-1.6c1-.2 2-.3 2.9-.6l1.8-.3.9-.1c.3 0 .6-.2.9-.1l.5-.1h.4c.2 0 .2-.1.4 0h.5c.3-.2.6-.1.9-.1h.2l.8-.1h1.5l.1-.1.3.1h.7l.3-.2h7.6c.1-.1.3.1.5.1h1.7l.4.1.7.1.8.1h.6c.2.1.4 0 .5.2l1.1.1 2 .4.7.1 2.1.5.7.2 1 .3 1.4.5 1.3.5.7.3 1.1.4 2.6 1.1.7.4 1.4.7.5.4.4.2.2.1.7.5c.3 0 .2.3.6.4.2 0 .2.3.5.3 0 .2.5.3.6.5l.7.5.5.3.2.1.1.2 1.4 1c.4.3.9.6 1.1 1h.3c0 .1 0 .2.2.3l.7.5 1.4 1.3a22 22 0 011.8 1.7l.3.3 1.5 1.7.4.5.9 1 .7.8 1 1.2c.5.5 1 1 1.3 1.6l.4.6.2.3.3.5.6 1.2v.4l.2.3c.1.4.1.8.3 1.1l.2 1.1v1.3c.3.2.1.5.2.7.2.5 0 1 0 1.5v2c0 .5 0 .9-.2 1.3v.3l-.3.4z" fill="#C6D7E4" fill-rule="nonzero"/>
    <path d="M63.1 3l-.4-.6-.2.4-.2-.4-.2.3H62l-.1-.4h-.6c-.3-.4-.5-.6-.7-.4l.2.2-.1.2-.5-.3H60l.2.2c-.3.4-.3.4-.7.2l-.3.2c-.1.1 0 .3-.3.2l-.2-.3-.6.8-.2-.2-.3.4-.5.3.1.1-.8.3.1.1-.4 1c.6-.1.6-.7 1-1l1.1-.9v.3l-.6.6-.6.6c-.3 0-.3.4-.5.6-.3.3-.4.8-.8.9 0 .4-.2.7-.5 1V8l-.3.1c.2.2.3.4 0 .6-.2.2-.3.6-.2 1l-.2.8-.1.6.2.2-.1.2v.8l.3 1.1c.1.5.3 1 .6 1.3.6 0 1-.4 1.4-.5.5 0 1-.4 1.5-.6 1-.4 1.7-1.1 2.7-1.4l.2-.2.1-.2a12 12 0 002.3-1.9l.9-1.3.4-.7c.3-.4.3-.9.4-1.3V5.2c0-.5-.2-1-.5-1.4l-.4-.3-.2-.4-.2.2-.3-.3H63zM57 .8c0 .3.4.4.2.7h-.2c0 .2-.3.3-.5.3l-.8 1-1 .7-.2-.1c0 .5-.3.8-.6 1l.2.5h.2v-.5c.4 0 .6-.1.8-.4l-.2-.2c.4-.1.7-.3 1-.6.4-.7 1.1-1.2 1.8-1.6l.6-.2-.6-.3-.2.4-.3-.7.8-.4.2.1c.5-.4 1.1-.3 1.8-.5l.3.2v.3h.3l-.1-.4.1-.1c.4 0 .4.3.6.6l.1-.5c.4 0 .8.3 1.1.3a263.6 263.6 0 00.3.1h.6l-.1.3h.4l1.5.7A7 7 0 0166.7 3l1 1.6c.2 0 .2.2.3.4h-.2c.3.2.4.4.5.6.2.8.2.8 0 1.2l.3.7-.4.2.2.3-.3 1.6h-.4c0 .5-.3.9-.7 1.2l.4.2-.2.4-.1-.3c-.1 0-.3 0-.4.2l-.7 1v.2l-.7.6c-.3.7-1 1-1.4 1.3l-.5.3v-.3h-.2c0 .3 0 .5-.3.6h-.4l-.5.6-.5-.1c-.2.5-.7.6-1.2.8l-.2-.1-.4.4H59a533.3 533.3 0 00-1.3.8l1.4.8.2-.1.5.1v.2h.1c.1-.2.3 0 .5 0h.6l.5.1h2c.7 0 1.4-.2 2.1-.4l1.3-.4 2-.8c.3-.1.7 0 .9-.4 0-.1.3 0 .3-.3l.2-.1.3-.3.7-.6v.6c-.2.1-.2.1-.5.8h.3c.2-.5.6-.7.9-1l.2.2-.3.5h.3l.4-.6v.5l.6.3-.6.3v.4l-.4.4.3.2-.3.4-.4-.3v.5l-.1.1v-.2l-.8.5.1.1-.3.5-.3-.2-.2.4h-.4l-1 .7c-.4.2-.8 0-1.2.4l-.2-.4H67l.4.3c-.4.2-.8.7-1.4.3l-.2.3-.2-.2c-.3.2-.6.3-1 0 0 .2-.2.3-.3.4l-.5-.2-.1.1h-.3-.3l-.3-.1c-.1 0-.2 0-.3-.2-.4.5-.7 0-1.3 0l.4-.5c-.1 0-.4 0-.7.4v-.2c-.2-.2-.4 0-.6 0l-.3-.2-.2.1v-.2l-1.6-.5a.5.5 0 01-.3-.3h-.6l-2-1.5-.4-.2-.5-.3v.3c-.4 0-.8 0-1.2-.2l-.5.3c-.4-.3-1 0-1.4-.2l-.4.1-.1-.3c-.3.2-.6.1-.9 0-.2 0-.5 0-.8-.3l-.1.1-.2-.1h-.2l-1-.1c-.6-.3-1.3-.3-1.9-.7l-.7-.2a12.3 12.3 0 01-5.6-3.4l-.6-.5-.5-.5c-.5-.5-.8-1-1.2-1.6-.4-.5-.8-1-1.1-1.7l-1-1.8-.6-1.8v-.3L34 3.5v-1l.4-.4.8.2v.2h.3l.4.5.1.6c0 .7.4 1.3.7 2l.5 1.3.4.7 1 1.5.6.9 1.5 1.6c1 1 2.4 1.8 3.8 2.5l1 .3c.4 0 .8.3 1.2.4.7 0 1.3.3 2 .3l.7.2c.3 0 .5-.1.8.1h.4c.5-.2.8-.2 1.2 0 .1 0 .2 0 .3-.2l.2.2.1.2.4-.5-.4-.9-.4-1a4 4 0 01-.3-1l-.2-.2v-.8l-.1-.6v-.4c.2-.4 0-.8.1-1.2 0-.4.1-.7.4-1 0-.3 0-.6.2-1l.2-.5c.2-.2.2-.5.2-.6.2-.4.3-.9.8-1l-.2-.3.4-.3.3-.6.9-1 1-1L57 .8z" fill="#000"/>
    <path d="M106.3 40.2c.3 0 .6 0 .9-.2.2 0 .5-.3.7-.5l.6-1a1.5 1.5 0 010-.5v-.3-.3l1-1c.3-.5.5-1 .5-1.5l.2-.1.1-.2.2-.2h.2a35.3 35.3 0 014.2-6l1.4-1.9c0-.3 0-.5.2-.7.2-.2.3-.5.3-.7h-.1v-.2-.3-.2l-.3-.6a15.6 15.6 0 00-.4-1h-.5-.3l-.3-.2a2 2 0 00-.5-.1 32.2 32.2 0 00-5.4 6.9l-1.7 2.6c-.2-.3-.2-.7-.3-1.2a165 165 0 01-.5-4.5c-.1-.5-.3-1-.6-1.3-.2-.4-.5-.8-1-1 .1-.1.1-.3 0-.4 0-.1 0-.3-.2-.4l-.4-.3-.6-.2-.5.4-.5.6-.1.8v1.3a54.8 54.8 0 00.2 2.7v2.7l.2.5.1.5.1 1.2a17.3 17.3 0 00.6 2.7l.2 1.3.2.2.2.3v1c.2 0 .3 0 .4.2a4.6 4.6 0 01.5.5c0 .2.1.2.2.3l.8.3zM119 40.2a4.8 4.8 0 003-.2h.6l.8-.2a10 10 0 001.3-.6 87.1 87.1 0 001.2-.4l.9-.6c.3-.1.6-.3.8-.6l.4-.4.4-.7.1-.8V35l-.1-.5-.2-.5-.2-.5V33c-.4-.6-.8-1.3-1-2l-1-1.9v-.3l-.1-.1-.1-.2.3-.4.1-.5-.1-.4-.2-.4h-.1-.2l-.1-.3-.3-.2-.3-.2-.1-.4a1 1 0 00-.6-.3 2 2 0 01-.6-.2l-.5.4-.3.5h-.8a135.7 135.7 0 01-1 1v.3a1 1 0 00-.4.2l-.3.2-.2.2-.4.1c-.1.3-.3.4-.5.5l-.5.6h-.2l-.1.3-.2.2h-.2a159.5 159.5 0 01-2.5 3.2c-.4.6-.6 1.3-.8 2-.2.8-.2 1.6-.1 2.5l.7 1.2 1 1 1.2.5c.5.2 1 .2 1.5.1z" fill="#272729" fill-rule="nonzero"/>
    <path d="M119.7 36.9h-1.1c-.4-.1-.7-.2-1-.5l.3-1 .4-.7.5-.8.5-.8H119.6c.3-.5.7-1 1.2-1.3l1.3-1 .3.1.3.1h.3l.1-.3h.3l.1-.2c.4.5.6 1 .9 1.6l.9 1.5v.4l.1.3-.1.5-.3.4-1.5.8-1.6.6-1 .1-1.2.2zM131.7 40.3h.2l.8-.2.6-.6c.1-.3.2-.7 0-1.1V36a14.5 14.5 0 01.8-4.5l.8-2.2a.5.5 0 01-.3-.3v-.5-1a.8.8 0 01-.5-.4l-.2-.5V26l-.3-.5-.6.1-.5.3-.4.3c0 .2-.2.3-.3.4 0 .2 0 .5-.2.7l-.3.6v.8l-.2.1-.2.2v.3l.1.4a13 13 0 01-.5 1.9 11 11 0 00-.5 2.6 805.7 805.7 0 010 3 19.1 19.1 0 001 3h1-.3zM144 40.2a2 2 0 011-.2h.9a53 53 0 011.5-1.2v-.7a2 2 0 00-.4-.5l-.4-.4-.4-.4c-1.1 0-2.3 0-3.5-.2-1.1 0-2.2-.2-3.3-.5l-.2-.6-.2-.6.3-.3V34l.8-.7.2-.2a10.5 10.5 0 011.3-1 4 4 0 011-.5 4 4 0 011.7-1l2-.7c.4-.1.7-.3 1-.6.3-.3.5-.6.6-1v-.9c-.2-.3-.5-.5-1-.6l.1-.2v-.2l-.4-.1-.4-.1.1-.2V26l-.2.1h-.1l-.2-.2h-.2-.7l-.4.3a8 8 0 01-1 .5l-.5.4c-.3 0-.6.2-.8.3l-.7.5-.8.4a3 3 0 01-.8.4l-.3.3-.4.2-.3.3-.5.3-1.3 1.5c-.4.5-.8 1.1-1 1.8a11.7 11.7 0 00.3 3l.6 1.4c.2.4.5.8 1 1l.5.4.5.5a17.9 17.9 0 005 .9zM152 40.3a9.9 9.9 0 002.8-.3h.3a66 66 0 013.2-.6c.4 0 .8-.3 1-.5.4-.3.7-.7.9-1.2h-.2v-.3l-.1-.2-.2-.2-.3-.1-.3-.3-.3-.3c0-.2-.2-.2-.3-.3l-1.2.3c-.4 0-.8.2-1 .3a8.6 8.6 0 00-2.3.2h-2.3a9.3 9.3 0 011.2-2.3l.7.1.6.1h.5l.5-.1h1.4a4.7 4.7 0 001.6-.9l.8-.5v-.5-.4h-.5l-.3-.3a13.7 13.7 0 01-.7-.8V31l-1.9.2h-1.8v-.4l-.2-.4.5-.1.3-.2.7-.1h.6l1.5-.6a222.3 222.3 0 013-.7c.4-.2.8-.6 1.1-1.1v-.2-.2-.1-.3l-.8-.5c-.3-.1-.5-.4-.6-.6 0 .1 0 .2-.1.1l-.3.1-.4-.2a26.6 26.6 0 01-3.2.5 20.5 20.5 0 00-4.1 1l-.9.2-.7.4a2 2 0 00-.6.5l.2.8v.8l.3.7.5.7a9 9 0 01-.7 1.5 15.7 15.7 0 00-.6 1.5h-.2c0 .2 0 .2-.2.2l-.1.6c-.2.2-.3.4-.3.7v.7a10 10 0 00.2 1.6v.7c.3 0 .4.1.4.3l.3.4c.2.3.6.5 1.1.6l1.5.2z" fill="#272729" fill-rule="nonzero"/>
    <path d="M163.4 281.6c.3.5.8 1 1.3 1.3l-1-1.1-.3-.2zM176 311.4c-.4.1-1 0-1.4.4.5 0 1-.1 1.3-.3zM133.7 262.8l1.6 1.4c-.4-.5-.8-.9-1.3-1.2l-.3-.2zM115.4 309.1l-1-2c.1.8.4 1.5 1 2zM142.5 248c-.7-.5-1.9-.8-2.4-.7l2.4.6zM175 258.2l.5.3 1.5.8c-.5-.6-1.2-.9-2-1zM146.1 246c-.4-.4-.9-.7-1.4-.9h-.5l.1.2 1 .3.8.3zM153.9 290.3a4 4 0 001.5 1.6 3 3 0 00-1-1.2l-.5-.4zM176.2 288.3h.2l-1.5-2h-.1c.5.6.8 1.5 1.4 2zM139 245.7l3.4.6c-1-.4-2.2-.6-3.4-.6zM150.2 255.8l-3-1.1c.8.6 1.8 1 3 1.1zM139.7 261.6l2.7 2 .2-.1c-1-.7-1.8-1.4-2.9-1.9zM156.3 287.9c.2.6 2 2.4 2.7 2.7l-2.7-2.7zM160.9 288.8l-3-2.9-.1.1c.9 1 1.9 2 3 2.8zM133 267.1l-2.4-2.3-.1.1c.5 1 1.5 1.6 2.4 2.3h.1zM182.2 271.6c-.8-1.3-3.2-3.4-4-3.6l1.2 1.1.8.7 1.5 1.4.5.4zM193.1 269.4c.6.7 1.2 1.5 1.6 2.3l1.3 2.4a9.3 9.3 0 00-2.7-4.6l-.2-.1zM137.8 261.9l1.4 1a21 21 0 002.9 2 24.5 24.5 0 00-4.3-3zM177.4 263.2l-1-.8a9 9 0 00-3.4-1.9l4.4 2.7zM190.3 300.4a20.4 20.4 0 00-3 3.9c1.1-1 2-2.2 2.7-3.5l.3-.4zM156.3 281.5a14 14 0 00-4.4-4.2l4.4 4.2zM143 250.3c.4.8 3.5 2.2 4.7 2.1-1.4-.8-2.8-1.3-4.2-1.9l-.5-.2zM165.2 260c2.2 1 4.1 2.5 6.4 3.5a21 21 0 00-6-3.3l-.4-.2zM141.4 266.4l.2-.3c-1.8-1.4-3.6-2.8-5.7-4 1.6 1.6 3.6 2.9 5.5 4.3zM129.1 259.7c2 1.9 4 3.9 6.5 5.5a22.7 22.7 0 00-6.4-5.5z" fill="#48AC98" fill-rule="nonzero"/>
    <path d="M106.3 292.5a107 107 0 003 13h-.1l-.8-2.7c-.8-2.7-1.4-5.4-2-8.2-.4-2-.5-4.1-.3-6.2.2-2.5 0-5-.2-7.4-.2-4.8-.2-9.6.5-14.4 0-.3 0-.8.2-1 .4-.9.4-1.7 1-2.5.2-.4.2-1 .5-1.4.9-1.2 1.3-2.5 1.9-3.8l.3-.8c.8-1.7 1.7-3.5 3.2-5 3-2.9 6.3-5.6 10.4-7.5 4.1-2 8.5-2.9 13.2-2.6 2 .2 4 .2 6 .8 1 .3 1.9.8 2.8 1.2 1 .5 2.3.9 3.3 1.6 1.3.9 2.7 1.8 4 2.9 1.3 1 3.1 1.3 5 1.2 2.2 0 4.5-.2 6.8 0 6.3.4 11.6 2.5 16 6.3l6.3 6 4.6 5 1 .9c4.4 4.3 5.4 9.5 5.3 15.1 0 2.3-.5 4.6-1.1 6.8l-.2.6c-.7 2.6-1.3 5.3-2.7 7.9a26.5 26.5 0 01-10.6 11.2l-1.2.7c-2 1.1-4 2.2-6.2 3-2.6.9-5.3 1.4-8 1.5-3.4.2-6.7-.1-10.1 0l-1.4.1-.5.1c-1.7.3-3.4.4-5 .8l-6 1.7a52.8 52.8 0 01-22.7 1l-.5-.2c-.8-.2-1.8-.2-2.3-1-2.8-.8-4.4-3-6.3-4.8-.8-.8-1.4-1.7-2-2.6-.6-.7-.8-1.5-1.1-2.3-.9-2-1.4-4.2-2-6.4-.7-2.4-1.2-5-1.7-7.4l-.3-1.2z" fill="#48AC98" fill-rule="nonzero"/>
    <path d="M83.7 278.3l.6.2.2.6.3-.1.5.6v.5h.4v1h-.2l-.2.3c-.5 0-1 .3-1.4 0-.2.3-.5.3-.7.3h-1.5c-.6-.2-1 0-1.6 0l-1.8-.2c-.6 0-1.2.1-1.8-.1-1.2.2-2.3-.2-3.5-.2-.9 0-1.8 0-2.7-.3-.3 0-.7.1-.8-.5-.4.4-.8.5-1.2.3a3 3 0 00-1-.1c-.9 0-1.7-.3-2.6-.4l-2.4-.5c-1-.1-2-.6-3-.9l-.4-.3c-.2-.1-.5-.1-.6-.3 0-.2-.3-.1-.4-.2-.2 0-.4-.2-.6-.4 0-.2-.3-.4-.2-.7l-.1-.3c-.6-.2-.6-.7-.7-1.2.2-.8.8-1.2 1.6-1.2h.3l1.3.2c.5 0 .9.2 1.3.3.4.1.8.4 1.2.4.4-.1.7.3 1 0 .2.4.6.1.8.3.4-.1.7.2 1 .2l1 .1 3 .6c.5-.3.9.3 1.4.1.5-.1 1 .1 1.5.2l1.6.3 1.5.2c.7.1 1.5 0 2.2.3.5-.3.8.2 1.3 0l1.2.1c1 .2 2 0 2.9.2h.7l-.1.7.7-.1M73 263.4l-.1.1-.2-.7c0 .2-.2.3-.3.4-.2-.1-.6-.2-.7-.4-.2-.3-.5 0-.7-.2-.2-.2-.6-.2-.7-.4-.2-.3-.5-.3-.7-.5l-.7-.5h-.6v-.7l-.4.4c-.6-.7-1.6-.8-2.3-1.4v-.4l-.2.3-.6-.4.1-.5h-.2s-.2 0-.3-.2l-.3.3-.4-.7v-.4l-.6.1c-.2-.5-.7-1-.7-1.6a80.2 80.2 0 01-.2 0H62v-.2l.2-.4v-.5l.5.3v-.6l.6.5-.2.2.4.4.2-.6h.6c.4.2.7.6 1 .9.3 0 1 .3 1.2.6l.3-.1.5.5H67l.1.2c.4 0 .8-.1 1 .3l.5.1c.8.1 1.4.4 1.8 1.1h.4c.2.1.4.4.5.3.3-.2.3.2.5.3.2 0 .4.2.5.3a22.3 22.3 0 014.4 2.8c.8.6 1.7 1.2 2.4 1.9.5.5 1.1 1 1.4 1.5.3.6.7 1.1.8 1.8l-.2.2v.2l-.8.4c-.2-.2-.5-.4-.5-.9 0 .3-.2.4-.3.6l-.2-.1v-.4l-.4.1-.1-.3-.6.2-.3-.8c-.1-.2-.6-.2-.5-.7l.3-.2-.6-.2.2.4-.5-.2-.8-.7-.8-.4-.7-.5-.9-.3-.5-.6M75.4 240.4l.3-.8c.4-.2.8-.2 1.3 0v.5c.8-.1.7.7 1.2.8.5.6.7 1.4 1.2 2l.2.3 1.3 2.2.8 1.5 1 1.6.2.3c.2.4.4 1 .7 1.3l.5 1 .7 1.8.7 1.8v.8l-1 .4c-.3 0-.2-.4-.5-.6h-.3l-1-.6-2.1-3.6-1.2-1.8-.8-1.3c-.7-1.2-1.4-2.5-1.9-3.8-.4-1.2-1.1-2.3-1.3-3.8" fill="#000"/>
    <path d="M122.7 292.7l1-.1.8-.4a4 4 0 011-.4v-.3l-.2-.2c.2 0 .4-.1.5-.4l.5-.8a12 12 0 00.5-1.4 39 39 0 014.6-2.2l1.7-.4v.4a39.6 39.6 0 00-.4 2c0 .6.1 1.2.4 1.6l1 1.3v.3c.2 0 .4.1.5.3l.6.3 1.3-.4 1.1-.7c.4-.3.6-.7.8-1 .2-.5.3-1 .2-1.6l-.2-1v-.7l.5-.6c0-.3.2-.5.3-.8a23.2 23.2 0 01.7-1.4c0-1 .2-1.9.5-2.7l.6-2.7a78.7 78.7 0 00-.3-4.4l-.9-1a175.8 175.8 0 00-2-3.9c-.4 0-.7.3-1 .6-.3.3-.6.7-.7 1.2a5 5 0 00-.1 2.9c-.2 0-.3.1-.4.3l-.3.3c.2 1 .1 2 0 2.9l-.5 2.9c-.5.2-1 .5-1.7.6a21.8 21.8 0 01-3.7.9l-1.8.4v-.3c-.2 0-.3-.1-.3-.2a27 27 0 00.7-3.3 31.4 31.4 0 00.4-3.5 78.2 78.2 0 01-2.4-3.4l-.6-1.3c-.7.2-1.2.6-1.6 1.3-.3.7-.6 1.5-.7 2.4-.2 1-.3 1.9-.3 2.9s-.2 1.9-.3 2.7h-.3l-.1.1.1.7a5.2 5.2 0 01-.4 2l-.4.7-.3 1.6c0 .7-.3 1.2-.7 1.8 0 .1.1.3 0 .4v.3l-.2.4v.6c0-.1-.1-.1-.2 0v.2l-.2.3v.2l.3 1 .5.9h-.2V291.2s0 .1 0 0l.2.3a36.8 36.8 0 01.8.5l.1.3c.5.3.9.4 1.2.4zM145.8 292.7h.3c.4 0 .8-.1 1-.3.4-.2.6-.4.8-.8.2-.3.2-.8.1-1.4-.2-1-.2-2-.2-3a18.7 18.7 0 011.2-5.7l1-2.9a.6.6 0 01-.4-.4l-.1-.6V276.3a1 1 0 01-.6-.5 3 3 0 01-.2-.7l-.1-.7c0-.3-.2-.5-.4-.7-.3 0-.5 0-.7.2l-.6.3a5 5 0 00-.5.5l-.5.4c0 .3 0 .7-.2 1a8 8 0 01-.4.7v.5l-.1.5-.2.2-.2.2v.5c.1.1.2.3.1.5l-.6 2.4a14.2 14.2 0 00-.7 3.3 1040.7 1040.7 0 010 4 24.7 24.7 0 001.3 3.7h1.2-.3zM164.8 293.3a4 4 0 002.4 0l.4-.2.3-.4a76369.1 76369.1 0 00.3-.6l-.1-.1.2-.6v-.7c0-.3-.2-.5-.3-.8l-.5-.6a35.4 35.4 0 01-3.8-.7 18.1 18.1 0 01-2-.6l-.9-.5a112.6 112.6 0 00-1.3-1l2.2-.8c.9-.2 1.6-.5 2.4-.9.7-.3 1.3-.8 1.8-1.3a3.4 3.4 0 00.9-2.5v-.3l-.1-.2v-.2l-.4-1-.3-1a8 8 0 00-.5-1l-.5-.7v-.4a4 4 0 01-.5-.3l-.4-.2a4 4 0 00-1.2-1.2l-1.3-1c-.8.1-1.5.4-2 .8l-1.4 1.5-1.2 1.6c-.4.6-1 1.1-1.4 1.5 0-.1-.3-.3-.5-.3-.3-.1-.6-.2-.8-.1l-.5 1.4a63.5 63.5 0 00-.7 3.3l-.5 1.6V286c-.1 0-.2.1-.2 0v1c0 .2 0 .5-.2.8l-.2.9-.2 1 .2.4c0 .2.2.2.3.2v1c.1 0 .1.2 0 .4l.5.1.1.5h.4l.2.2.3.1h.3l.4-.2c0-.1.3-.2.5-.1l.8-1.3.6-1.8a414.1 414.1 0 001.9 1.5l1.2.7a30.3 30.3 0 005.3 1.9z" fill="#272729" fill-rule="nonzero"/>
    <path d="M158 282.5l.5-1.1.7-1 .8-.7.7-1 1.1.8c.4.4.6 1 .7 1.5l-2.2 1c-.8.3-1.5.5-2.2.5zM173.2 292.7a12.7 12.7 0 003.6-.4l.4.1h.5a85.4 85.4 0 013.7-.8 4 4 0 001.3-.8c.4-.3.8-.8 1-1.5h-.2v-.3l-.2-.3-.1-.3-.5-.1-.3-.4a20 20 0 01-.4-.4 1 1 0 00-.4-.3l-1.5.3a4 4 0 00-1.5.5 11 11 0 00-2.8.1l-1.3.2c-.4 0-1 0-1.7-.2a12 12 0 011.6-2.9l.8.1c.3 0 .6 0 .8.2.2-.1.4-.2.7-.1h.1l.6-.1H179a6 6 0 002.1-1.1l1-.7v-.6-.5l-.6-.1-.5-.4a17.7 17.7 0 01-.8-1v-.2l-2.5.2h-2.3s-.1-.3 0-.4l-.2-.6.6-.2.4-.2 1-.1h.6c.7-.4 1.4-.7 2-.8a287.2 287.2 0 013.8-.9c.6-.2 1-.7 1.5-1.4v-.3-.2-.2-.3a5 5 0 01-1-.6c-.4-.3-.6-.5-.8-.9 0 .2 0 .3-.2.2l-.3.1c-.1 0-.3 0-.5-.2a34.4 34.4 0 01-4.2.6 26.5 26.5 0 00-5.3 1.2l-1.1.3-1 .5-.7.7.2 1 .2 1 .3 1c0 .3.3.6.6.8a11.7 11.7 0 01-1 2 20.2 20.2 0 00-.8 2h-.2c0 .2 0 .2-.2.2 0 .3 0 .6-.2.8l-.4.8v1a12.9 12.9 0 00.3 2l.1 1c.3 0 .4.2.4.3l.4.5c.3.4.8.7 1.4.8a9 9 0 002 .3z" fill="#272729" fill-rule="nonzero"/>
    <path d="M82.2 187.4h3-3zM79.5 143.4c1-.1 1.9-.4 2.7-.7-1 .1-1.9.4-2.7.7zM136.1 138c.1.3-.4.6.3 1 .3-.4 0-.8-.3-1zM37 163.3l3-1a18 18 0 00-3 1zM113.2 183.2l-3.9.5c1.4 0 2.7-.2 3.9-.5zM13.5 154.7c-1 .5-1.8 1.3-1.9 1.7l1.9-1.7zM41.8 131.6c1-.4 1.9-.8 2.5-1.4a6 6 0 00-2.5 1.4zM11.1 151.7a5 5 0 00-2 1.1c-.1 0-.3.1-.1.2.2.1.3 0 .4 0l1.7-1.3zM91.9 151.7c1.2-.1 2.3-.4 3.3-.9-1.4.2-2.3.6-3.3 1zM95.4 134.7v-.2l-4.1.9c1.4-.2 2.9-.3 4.1-.7zM29.9 150l-3 2a7.5 7.5 0 003-2zM41.2 156.8l-.2-.1c-1.5.6-3 1.1-4.2 1.9l4.4-1.8zM88.4 149.6a63076.1 63076.1 0 000 0zM91.5 146.3zM39.6 165.9h.1c2-.2 3.4-.9 5-1.4l-.2-.2-5 1.6zM67.7 128c-2.5.4-7 2-7.7 2.5l3.9-1.2 3.8-1.3zM67.2 119.5l4.6-1 4.7-.6a31 31 0 00-9.3 1.6zM36.6 160c2.4-.8 4.8-1.7 6.8-2.8a48 48 0 00-6.8 2.9zM51.3 130.4c-2.2 1-4.6 1.7-6 3l6-3zM121.2 125.7c1.8 1 3.6 2 5.8 2.8-1.6-1-3.6-2-5.8-2.8zM77 148.8c-2.2.3-7.6 2-8.6 2.7l8.6-2.7zM17.8 154.6c1.5-.2 5-2.3 5.2-3.2-2 1-3.5 2.2-5.2 3.2zM42 139.2c2.5-1.5 5.6-2.8 8-4.4-3.2 1.2-5.9 2.7-8 4.4zM45.7 158l-.3-.2c-3.1 1.1-6.2 2.3-9 3.7 3.4-1 6.3-2.3 9.3-3.5zM30.1 166.3c4-1.3 8.1-2.4 11.8-4.1a48 48 0 00-11.8 4.1z" fill="#C6D7E4" fill-rule="nonzero"/>
    <path d="M81 187.8c7.9 0 15.9-.2 23.8-.6v.2l-4.9.2c-5 .3-10 .3-15.1.4-3.8 0-7.5-.2-11.1-.6-4.4-.4-8.8-.6-13.2-.8-8.5-.5-17-1.2-25.2-2.3-.6 0-1.4-.1-2-.3-1.2-.4-2.7-.5-4-1-.6-.3-1.5-.3-2.2-.6-1.8-.9-4-1.4-6.1-2a32.5 32.5 0 01-19.1-12.2c-2.3-3.4-2.6-6.8-.5-10.3.9-1.5 1.6-3 3.2-4.3l3-2c1.3-.7 2.3-1.6 3.8-2.2 2-1 4.1-1.9 6.4-2.7a5.6 5.6 0 003.7-3.5c.7-1.8 1-3.5 2-5.2 2.7-4.7 8.2-8.4 16.3-11.2 4-1.4 8.4-2.6 12.6-3.9l12.1-3.5c9-2.7 18.5-2.7 28.4-2 4.3.4 8.5 1.2 12.6 2 4.4 1 9 1.7 13 3a35.8 35.8 0 0116.7 9.6c1.6 2 3.3 4 4 6 .9 2 1 4.2.4 6.3-.9 2.5-2.4 5-3.2 7.5l-.3 1.5c0 1.3-.3 2.6 0 3.9.3 1.5.8 3 1 4.7.6 2.4.4 4.7 0 7.1-.6 2.3-1.5 4.5-2.7 6.7-.8 1.3-1.8 2.6-3.1 3.7-.6.6-1 1.3-2.4 1.6-2.4 2-6.6 3-10.4 4-1.7.6-3.6 1-5.3 1.3-1.5.4-3 .3-4.4.5-4 .4-8 .5-12 .7l-15.9.3z" fill="#C6D7E4" fill-rule="nonzero"/>
    <path d="M32.5 163.4l.9-.3h1l.6-1.3a8.5 8.5 0 00.6-2.8v-1.4a65.7 65.7 0 015.5-1.2l2.6-1c.7-.5 1.4-1 2-1.7l.4-1.9-.2-1.8-.7-1.7-.8-1.5c-.4-.4-1-.7-1.6-1l-2-.4-.2.1c0 .1 0 .1-.1 0a4 4 0 00-1.2 0 6 6 0 00-2.2.5c-.4.1-.6.3-.9.5a3 3 0 00-.8.6l-.8.9-.6 1-.5 1.3-.1.7-.5.6h-.2-.3a27.5 27.5 0 01-1 1.5l-.3.9v1H31v.3l.2.5c0 .2 0 .4.2.5h-.1-.1c.3.2.5.5.5.8v1l-.3 1.2v1H31c0 .1 0 .3.2.4l-.3.6.3.5c0 .2.2.4.4.6v.6c.3 0 .4 0 .5.2l.4.2z" fill="#272729" fill-rule="nonzero"/>
    <path d="M37 152.9l-.3-.3-.2-.2a9.2 9.2 0 01.4-.7l.1-.3.1-.5c.4-.3.9-.6 1.4-.7a5.3 5.3 0 013 .2c.4.2.7.3.9.6a2 2 0 01-.6.4 7.3 7.3 0 01-1.5.5l-.7.2-.7.3h-.7l-.6.2c-.2 0-.5.1-.7.3zM51.3 163a121 121 0 003.2-1.5 6.2 6.2 0 002-2.3l.2-.3h.4v-.6l.5.1.1-.2.2-.2a14.4 14.4 0 00.3-.6l.6-1 .7-1.5a148.2 148.2 0 00.3-3 32 32 0 00-.5-1.3l-.1-1a12.3 12.3 0 00-1.2-1c-.4.1-.6.4-.7.7v.6c0 .2 0 .4-.3.5a13.9 13.9 0 01-.6 2.9l-.6 1.4c-.2.5-.5 1-.9 1.3a15.5 15.5 0 01-1.8 1.6l-1.1.6-1.3.4h-.4l-.1-.3-.2-1a7 7 0 01.5-3.3c0-.2 0-.5-.2-.8a8.8 8.8 0 00-.5-1.3l-.1-.4c-.3 0-.4-.2-.6-.4l-.3-.4-.2-.4-.4-.1-.3.4-.5.2-.2 1-.1.6-.2.9v.3a57.2 57.2 0 00-.3 5.4v.3l.2.1v.2l.6.5-.4.1a9.4 9.4 0 01.5 1l.4.8c.1.2.3.4.6.5h.2l.2.3a10.6 10.6 0 001.7.1l.7.1zM69.7 163.7c.7.2 1.3.2 1.8 0l.4-.1.2-.3.2-.3.2-.2h-.2v-.5-.6a2 2 0 00-.6-1 27.4 27.4 0 01-2.9-.6 14 14 0 01-1.6-.5l-.6-.3a87.2 87.2 0 00-1-.8l1.7-.6 1.8-.7a5 5 0 001.5-1 2.6 2.6 0 00.6-2v-.2-.1-.2c-.1-.3-.3-.5-.3-.8l-.3-.7-.3-.8-.5-.6v-.2a3 3 0 01-.3-.3l-.3-.2a3 3 0 00-1-1 16 16 0 01-1-.6c-.6 0-1.1.2-1.5.6a33 33 0 00-2 2.4l-1.2 1.1s-.1-.2-.4-.3h-.5a49.2 49.2 0 00-1.4 5.8s0 .1-.2 0c.1.3.2.5.1.7 0 .2 0 .5-.2.7l-.1.7-.2.8.2.3.2.2v1l.4.1v.4h.4l.2.2h.4c.1 0 .2 0 .3-.2h.4l.6-1 .5-1.4.7.6a5.5 5.5 0 001.6 1 23.5 23.5 0 004.2 1.5z" fill="#272729" fill-rule="nonzero"/>
    <path d="M64.5 155.4l.3-.9.5-.7.6-.6.6-.7.9.6.5 1.2a551.5 551.5 0 01-3.4 1.1zM74.3 163.4a23 23 0 001.6-.2l.6-1a6.5 6.5 0 00.4-2.4v-1.2a252.1 252.1 0 014.7-1l2-.8c.7-.4 1.3-.9 1.7-1.4.3-.5.4-1 .4-1.6a6.1 6.1 0 00-.7-3l-.7-1.2-1.3-.7c-.5-.2-1.1-.4-1.8-.4l-.2.1-1-.1a5.3 5.3 0 00-1.8.4c-.3.2-.6.3-.7.5-.3 0-.5.2-.8.5l-.6.7a7 7 0 00-1 2.5c0 .2-.2.3-.4.5h-.2-.2l-.4.6-.4.7-.3.7v.8h-.1l-.1.3.2.4c0 .2 0 .3.2.4h-.2v.1c.2.1.4.3.4.6v.9a11.4 11.4 0 01-.5 1.7l.1.4-.2.5.2.5.4.5v.5h.5l.2.2z" fill="#272729" fill-rule="nonzero"/>
    <path d="M78 154.7l-.1-.2-.2-.2a9.2 9.2 0 00.5-1.2c.3-.3.7-.5 1.1-.6a4.2 4.2 0 012.5.1l.8.5c-.3.3-.7.5-1.1.6a7 7 0 00-1.3.4l-1 .3c-.4 0-.8 0-1.2.3zM89.7 163.2a4.8 4.8 0 003-.2h.6l.8-.2a10 10 0 001.3-.6 87.1 87.1 0 001.2-.4l.9-.6c.3-.1.6-.3.8-.6l.4-.4.3-.7.2-.8v-.7c0-.1 0-.3-.2-.5 0-.2 0-.3-.2-.5l-.1-.5v-.5c-.5-.6-.8-1.3-1-2l-1-1.9v-.3l-.2-.1v-.2l.2-.4.2-.5-.2-.4-.1-.4h-.2-.1s0-.2-.2-.3l-.2-.2-.3-.2-.1-.4a1 1 0 00-.6-.3 2 2 0 01-.7-.2l-.4.4-.4.5h-.7a135.7 135.7 0 01-1 1v.3a1 1 0 00-.4.2l-.3.2-.3.2-.3.1c-.1.3-.3.4-.5.5-.2.2-.4.3-.5.6h-.2l-.1.3-.2.2h-.2a159.5 159.5 0 01-2.5 3.2c-.4.6-.7 1.3-.8 2-.2.8-.3 1.6-.1 2.5l.6 1.2 1 1 1.3.5c.4.2 1 .2 1.5.1z" fill="#272729" fill-rule="nonzero"/>
    <path d="M90.4 159.9h-1.1c-.4-.1-.7-.2-1-.5l.2-1 .5-.7.5-.8.5-.8h.2c.4-.5.8-1 1.3-1.3l1.3-1 .3.1.3.1h.2l.2-.3h.3l.1-.2.9 1.6.9 1.5v.4l.1.3c0 .2 0 .4-.2.5l-.2.4-1.5.8-1.7.6-1 .1-1.1.2zM102.5 163.4h.5l.4-.3v.2h.2a18.1 18.1 0 003.5-1.6c.5-.3 1-.7 1.4-1.2.4-.4.7-1 1-1.5v-1-1c0-.3-.2-.5-.4-.7l-.4-.6-.2-.1-.1-.2-.1-.5-.3-.5-.4-.4-.6-.1c0-.2-.1-.3-.3-.4a17.8 17.8 0 01-.9-.3.8.8 0 01-.3-.2v-.2l-.1-.1.7-.1c.3 0 .5-.1.6-.3h.6l.6-.2h.7l.5.1 1.5-.1 1.8.1.5-.2.4-.4v-.6l-.4-.5-.1-.4-.3-.4a13.7 13.7 0 01-.5-.9 7 7 0 00-2.5-.2c-.7 0-1.5.1-2.2.3a28.1 28.1 0 00-5.1 1.7l-1 .4a4 4 0 00-.7.6 2 2 0 00-.5.9v.4l-.2.5.2.4-.1.5.2.4.3.4h.3l.1.2c.5.2 1 .4 1.4.4l1.6.2.5.1h.5l1 .4c.3 0 .7.2 1 .4h.2l.1.2.1.2-.1.4-.3.2-.3.3-.2.4-1.1.5-1.2.6-1.4.5h-1.5c-.2.1-.3.3-.3.4v.5a118 118 0 00.4 2c0 .2.2.3.3.4h1z" fill="#272729" fill-rule="nonzero"/>
    <path d="M114.5 163.3a9.9 9.9 0 002.8-.3h.3a66 66 0 013.2-.6c.5 0 .8-.3 1.1-.5.3-.3.6-.7.8-1.2h-.2v-.3l-.1-.2c0-.1 0-.2-.2-.2l-.3-.1-.3-.3-.2-.3c-.1-.2-.2-.2-.4-.3l-1.2.3c-.4 0-.8.2-1 .3a8.6 8.6 0 00-2.3.2h-2.3a9.3 9.3 0 011.2-2.3l.7.1.6.1h.7l.3-.1h1.4a4.7 4.7 0 001.7-.9l.7-.5v-.5-.4h-.5l-.3-.3a13.7 13.7 0 01-.7-.8v-.2l-1.9.2h-1.8v-.4l-.1-.4.4-.1.3-.2.7-.1h.6c.5-.3 1-.5 1.6-.6a222.4 222.4 0 012.9-.7c.4-.2.8-.6 1.1-1.1v-.2-.2-.1-.3l-.8-.5c-.3-.1-.5-.4-.6-.6 0 .1 0 .2-.1.1l-.2.1c-.2 0-.3 0-.4-.2a26.6 26.6 0 01-3.3.5 20.5 20.5 0 00-4.1 1l-.9.2-.7.4a2 2 0 00-.6.5l.2.8.1.8.2.7.5.7a9 9 0 01-.7 1.5 15.7 15.7 0 00-.6 1.5h-.2c0 .2 0 .2-.2.2l-.1.6c-.2.2-.3.4-.3.7v.7a10 10 0 00.2 1.6l.1.7c.2 0 .3.1.3.3l.3.4c.3.3.6.5 1.1.6l1.5.2z" fill="#272729" fill-rule="nonzero"/>
    <path d="M228 189.3c-.2.7-.4 1.3-.3 2 .1-.6.4-1.3.3-2zm7.7-1.3l-.1-.1c-.4.3-.8.4-1.1 1l1.2-.9zm98.8 14v-.2l-1.5-.5v.3l1.5.3zm-20.6 6.5v-.1H312l1.9.1zm4.2 17h-2.6 2.6zm-6.2-.5h3-3zm-34.2-2c-.9-.1-1.8-.4-2.7-.2 1 0 1.8.3 2.7.1zM261.1 168c.2 1.2 1 .8 1.4 1.1-.4-.4-.8-.8-1.4-1zm38.3 57.1c1.2 0 2.5.5 4 .3l-4-.3zM329 219a4 4 0 002-.8c-.7.2-1.5.1-2 .8zm-86.8-5.3c1 .4 1.8.7 2.8.8-.9-.4-1.8-.9-2.8-.8zm-7-44.6c-1 1.2-1.4 2.7-1.8 4.2l1.7-4.2zm15-2.3c-1.8.5-3.5 1.4-5 2.6 1.6-1 3.3-1.8 5-2.6zm-13.8 22c0-.6-.3-.6-.5-.5-.6.2-1 .7-1.6 1-.1.1-.2.3 0 .5h.3l1.5-.7.3-.3zm10.8-25.3c1.7-.6 3.5-1 5.2-1.5-1.8 0-3.5.6-5.2 1.5zm67.4 62H304c3.5.2 7.1.3 10.7 0zM234.4 210c-1.4-1.2-2.6-2.7-4.1-3.7 1.2 1.5 2.6 2.7 4.1 3.7zm-5.3-29.3zm3.6-11.4c.8-1.3 1.8-2.4 2.5-3.8-1.3.8-2 2.2-2.5 3.8zm46.6 12.8v-.2l-4.1-2.4c1 2 2.6 1.9 4 2.6zm38.7 40.3c-3.9 0-7.8 0-11.7.3 3.9 0 7.8 0 11.7-.3zm-3.5-13.9c1.8.7 10.2.6 11 0h-11zm-68.2-55.6c-.3-.2-.5-.1-.7 0-2.1.8-4.4 1.3-6.3 3l-.4.2c-.7.3-1.3 1-1.9 1.4 0 .1-.2.3 0 .4 0 .2.2 0 .3 0a22 22 0 017.3-4.2l1.7-.8zm48.3 69c-6.8-1-13.6-2-20.5-2.2l20.5 2.2zM254.4 152c.6-.7 1.3-.6 1.8.3 0 .2.2.3.3.1.4-.4.7-.2 1.1 0 .4.1.7.4 1 .4.2 0 .4.2.4.5s.3.2.4.3c.5.7 1.6.1 1.9 1.2.8-.2.9 1 1.5 1.2.7.3 1.3 1.1 1.9 1.8.9 1 1.8 2.2 2.6 3.5 1 1.8 2.4 3.1 3.5 4.7.3.5.8.7 1.2 1.2.6 1 1.8 1.5 2.4 2.7 1.6.8 2.5 2.7 4 3.8a57.1 57.1 0 0016.5 9.2c2.2.8 4.4 1 6.6 1.4 4.3.8 8.7 1.2 13 2 3 .4 5.9 1.3 8.7 2.3 4.1 1.5 8.1 3.5 12 5.9 2.4 1.5 4.6 3.3 6.5 5.7a13 13 0 011.5 11.6c-.6 1.3-1.3 2.4-2.2 3.3l-1.3 1.4c-.8 1-1.8 1.6-2.6 2.5-.2.2-.4.5-.7.3h-.2a14 14 0 01-5.9 4.2 28.3 28.3 0 01-9.6 2 149 149 0 01-27.4-.5l-15.7-1.7c-6.1-.6-12.3-1-18.5-1.8-3.9-.5-7.8-1.2-11.7-2a36 36 0 01-13-5.6 28.5 28.5 0 01-8.3-9c-2.8-4.7-4-10-2.4-15.6 1.2-4.3 1.8-8.8 2-13.3.5-6.1 2.7-11.2 6.9-14.8 1-1 1.9-2.3 3-3.3 1-1 2.1-2.3 3.4-3.1 3.3-2.2 6.9-3.4 10.6-3.7.5 0 1-.3 1.3.3h.3c1-.6 2-.2 3 0 .2 0 .2 0 .2.6z" fill="#C6D7E4" fill-rule="nonzero"/>
    <g fill="#000">
      <path d="M224.2 289.1c-.7-1.5-1.3-3-2.2-4.6-.3-.6-.7-1-.3-1.6l.3-.3c2-.1 3.6-1 5.4-1.6 1.2-.3 2.5-.4 3.7.2.2 0 .4.4.6.6l-.7.5-5.3 1.8c-.6.2-.5.4-.3.9l1.2 3.3.7 1.4h.2c0 .4.4 1 .3 1.1a2 2 0 01-1.3.5c-1.3 0-1.6-1.2-2.3-2.2"/>
      <path d="M248.5 282.2l.1.2 1.2-2-.2-.1-1.1 2m12.5-9l.2.1 2.1-2.8-.2-.2-2 3m-12.3-.5L247 271c-.3-.3-.6-.3-1 0a3.8 3.8 0 00-.8 4.5c.8 1.7 2.3 2.1 3.9 2.3.1 0 .4-.3.4-.5.4-1.5-.1-3-.8-4.4m7.6 3c3.8-2.1 6.2-5.4 7.6-9.4 1.7-4.6 2.3-9.3 2.4-14.2V248c.1-.4.2-.9.5-1.1.2-.2.6-.1 1-.2v2.3l.4 5.4c.1 1.2.2 2.5.1 3.7 0 .8-.3 1.5-.3 2.3-.1 1.2 0 2.4-.3 3.6-.4 1.9-.7 3.8-1.4 5.5-1.4 4-4 6.9-7.7 8.8-1.7.8-3.4 1.8-5.4 2-.2 0-.5.3-.6.6-.9 2.4-2.5 4.2-4.5 5.6-1.6 1-3.2 2.1-4.9 2.8a21.2 21.2 0 01-9 .4c-2-.3-3.7-1.2-5.3-2.4-.2-.2-.3-.7-.3-1 0-.4.5-.5.9-.5 1.3-.2 2.3.6 3.4 1.1 2 1 4 1 6.1.6 3.6-1 6.4-3 8.7-5.8 1.2-1.5 1.2-1.5-.6-2a8 8 0 01-5.4-4.2 5 5 0 012.3-6.8c.8-.4 1.6-.3 2.4 0 1.8.4 3.3 1.5 4.4 3a9.3 9.3 0 012.4 5.1c0 .5.3.5.7.3l2.4-1.2"/>
    </g>
    <path d="M244.5 205.4l.9-.3h1l.6-1.3a8.5 8.5 0 00.6-2.8v-1.4a65.7 65.7 0 015.5-1.2l2.6-1c.7-.5 1.4-1 2-1.7l.4-1.9-.2-1.8-.7-1.7-.8-1.5c-.4-.4-1-.7-1.6-1l-2-.4-.2.1c0 .1 0 .1-.1 0a4 4 0 00-1.2 0 6 6 0 00-2.2.5c-.4.1-.6.3-.9.5a3 3 0 00-.8.6l-.8.9-.6 1-.5 1.3-.1.7-.5.6h-.2-.3a27.5 27.5 0 01-1 1.5l-.3.9v1h-.2v.3l.2.5c0 .2 0 .4.2.5h-.1-.1c.3.2.5.5.5.8v1l-.3 1.2v1h-.3c0 .1 0 .3.2.4l-.3.6.3.5c0 .2.2.4.4.6v.6c.3 0 .4 0 .5.2l.4.2z" fill="#272729" fill-rule="nonzero"/>
    <path d="M249 194.9l-.3-.3-.2-.2a9.2 9.2 0 01.4-.7l.1-.3.1-.5c.4-.3.9-.6 1.4-.7a5.3 5.3 0 013 .2c.4.2.7.3.9.6a2 2 0 01-.6.4 7.3 7.3 0 01-1.5.5l-.7.2-.7.3h-.7l-.6.2c-.2 0-.5.1-.7.3zM261.1 205.3a9.9 9.9 0 002.8-.3h.7a66 66 0 012.9-.5l1-.6.9-1.2h-.2l-.1-.3v-.2l-.2-.2-.4-.1-.2-.3-.3-.3-.3-.3-1.2.3c-.4 0-.8.2-1.1.3a8.6 8.6 0 00-2.2.2h-2.4a9.3 9.3 0 011.3-2.3l.6.1.6.1h.6l.5-.1h1.3a4.7 4.7 0 001.7-.9l.7-.5v-.5-.4h-.4l-.4-.3a13.7 13.7 0 01-.6-.8v-.2l-2 .2H263v-.4l-.1-.4.4-.1.4-.2.7-.1h.5c.5-.3 1-.5 1.6-.6a222.4 222.4 0 013-.7c.3-.2.7-.6 1-1.1v-.2-.2-.1-.3l-.8-.5-.6-.6v.1l-.3.1c-.1 0-.3 0-.4-.2a26.6 26.6 0 01-3.2.5 20.5 20.5 0 00-4.2 1l-.8.2c-.3 0-.5.2-.8.4a2 2 0 00-.5.5l.1.8.1.8.3.7.4.7a9 9 0 01-.6 1.5 15.7 15.7 0 00-.7 1.5h-.2l-.1.2c0 .2 0 .4-.2.6l-.3.7v.7a10 10 0 00.2 1.6l.1.7c.2 0 .3.1.4.3 0 .1 0 .3.2.4.3.3.7.5 1.1.6l1.5.2zM274.4 205.2a4.8 4.8 0 003-.2h.6l.7-.2a10 10 0 001.4-.6 87.1 87.1 0 001.2-.4l.8-.6c.4-.1.6-.3.8-.6l.5-.4.3-.7.2-.8v-.7l-.2-.5-.2-.5-.2-.5v-.5l-1-2-1-1.9v-.3-.1c-.2 0-.2-.1-.2-.2.2 0 .3-.2.3-.4l.2-.5-.2-.4-.2-.4h-.2l-.2-.3-.3-.2-.2-.2-.2-.4a1 1 0 00-.6-.3 2 2 0 01-.6-.2l-.4.4c-.1 0-.3.2-.4.5h-.4-.3a135.7 135.7 0 01-1.1 1v.3a1 1 0 00-.3.2l-.3.2-.3.2-.3.1-.5.5c-.2.2-.4.3-.5.6h-.2c0 .2-.1.2-.2.3l-.1.2h-.2a159.5 159.5 0 01-2.6 3.2l-.8 2c-.2.8-.2 1.6 0 2.5l.6 1.2 1 1 1.2.5c.5.2 1 .2 1.6.1z" fill="#272729" fill-rule="nonzero"/>
    <path d="M275 201.9h-1c-.4-.1-.7-.2-1-.5 0-.3 0-.7.2-1l.5-.7.5-.8.4-.8H275l1.2-1.3 1.4-1 .3.1.2.1h.3l.2-.3h.2l.2-.2.8 1.6 1 1.5v1.2a61.7 61.7 0 00-1.7 1.2l-1.8.6-1 .1-1.1.2zM286.2 205.4a23 23 0 001.6-.2l.6-1a6.5 6.5 0 00.4-2.4v-1.2a252.1 252.1 0 014.7-1l2-.8c.7-.4 1.3-.9 1.7-1.4.2-.5.4-1 .4-1.6a6.1 6.1 0 00-.7-3l-.7-1.2-1.3-.7c-.6-.2-1.1-.4-1.8-.4l-.2.1-1-.1a5.3 5.3 0 00-1.9.4l-.7.5c-.2 0-.4.2-.7.5l-.6.7a7 7 0 00-1 2.5l-.4.5h-.2-.2l-.4.6-.4.7-.3.7v.8h-.2v.3l.1.4c0 .2.1.3.3.4h-.2v.1c.2.1.4.3.4.6v.9a11.4 11.4 0 01-.5 1.7l.1.4c-.2.2-.2.3-.2.5l.2.5.4.5v.5h.4l.3.2z" fill="#272729" fill-rule="nonzero"/>
    <path d="M290 196.7l-.2-.2-.2-.2a9.2 9.2 0 00.5-1.2c.3-.3.7-.5 1.1-.6a4.2 4.2 0 012.5.1l.8.5c-.3.3-.7.5-1.1.6a7 7 0 00-1.3.4l-1 .3c-.4 0-.8 0-1.2.3zM300 205.4l1.6-.2 1.4-.5.6-.1a7.5 7.5 0 001.1 0l.6-.1h.5l1.4.1h1.2c0-.2.1-.2.2-.3l.5-.2v-.2-.3-.3l-.3-1a2 2 0 00-.4-.3 9.7 9.7 0 00-1-.4c-.3 0-.4-.2-.6-.4h-.3-.2l-.2-.1H304.8l-1.7.1a4 4 0 00-1.5.4 2 2 0 00-.5 0h-.2-.2c0-.6.1-1 .3-1.5a19.1 19.1 0 01.8-2.1l.2-1 .2-.2a5.8 5.8 0 00.2-.5v-.2l.3-.9a13.7 13.7 0 01.6-1.3l.2-.8.3-.2c0-.4 0-.7-.2-.9a4.6 4.6 0 00-.5-.7l-.2-.2a3 3 0 01-1-.2l-1-.4h-.2l-.3.3a23.8 23.8 0 01-1.4 4.3 57.2 57.2 0 00-2 6.3 4.6 4.6 0 00.3 1.8l.5.7v.3l.2.2.2.4c.5.4 1 .6 1.9.6zM313.4 205.3a9.9 9.9 0 002.8-.3h.7a66 66 0 012.9-.5l1-.6c.3-.3.6-.7.8-1.2h-.2v-.3l-.1-.2-.1-.2-.4-.1-.2-.3-.3-.3-.3-.3-1.2.3c-.5 0-.8.2-1.1.3a8.6 8.6 0 00-2.2.2H313a9.3 9.3 0 011.3-2.3l.6.1.6.1h.7l.4-.1h1.3a4.7 4.7 0 001.7-.9l.7-.5v-.5-.4h-.5l-.3-.3a13.7 13.7 0 01-.6-.8v-.2l-2 .2h-1.8v-.4l-.1-.4.4-.1.4-.2.7-.1h.5c.5-.3 1-.5 1.6-.6a222.4 222.4 0 013-.7c.3-.2.7-.6 1-1.1v-.2-.2-.1-.3l-.8-.5-.6-.6v.1l-.3.1c-.1 0-.3 0-.4-.2a26.6 26.6 0 01-3.3.5 20.5 20.5 0 00-4 1l-1 .2-.7.4a2 2 0 00-.6.5l.2.8.1.8.3.7.4.7a9 9 0 01-.7 1.5 15.7 15.7 0 00-.6 1.5h-.2l-.1.2c0 .2 0 .4-.2.6l-.3.7v.7a10 10 0 00.2 1.6l.1.7c.2 0 .3.1.3.3l.3.4c.3.3.7.5 1.1.6l1.5.2z" fill="#272729" fill-rule="nonzero"/>
    <path d="M182.3 81.4h-.4l-.7-.4-.9-.3-1.2-.5c-.4-.2-.7-.5-1.2-.6l-.5-.3-.1.2c.2.1.5.1.7.3.2.2.4 0 .5.2.2.2.4.1.5.3.2.2.4 0 .5.2.1.2.3 0 .5.2.2.1.5 0 .6.2.2.3.5 0 .6.4l.7.2.8.3c.2.1.4 0 .5.2.2.2.4.1.5.2 0 .2.3.2.4.2l.4.2c.2.1.4.3.7.3h.2c0 .3.3 0 .4.3l.6.1h.2c0 .2.3.2.4.3.1.1.3 0 .4 0l.7.3.5.2c.2 0 .3 0 .3.2h.6c.1.2.3 0 .5 0s.2.4.5.2h.5a1 1 0 00-.8-.4c-.3 0-.5-.3-.9-.2-.1-.2-.3 0-.5 0 0-.1 0-.2-.2-.3h-.3s-.2-.2-.4 0l-.1-.3c-.4 0-.7 0-1-.3l-.5-.2-.9-.3c-.3 0-.6-.3-1-.3V82l-.2.1-.7-.2-.1-.1-.1.1-.4-.3-.6-.2" fill="#000"/>
    <path d="M163.5 72.7v-.2h-.1l-.6-.6-.8-.8c-.3-.3-.6-.5-.7-.8-.2-.3-.5-.4-.6-.7-.3-.1-.4-.6-.6-.8l-.2-.2-.2-.4h-.1c-.2-.4-.6-.4-.7-.8-.5-.3-.7-.9-1-1.2-.2 0-.2-.3-.4-.4l-.1-.2v-.3l-.2-.4c.3-.1.5 0 .8 0l-.6-.2v-.1c.7-.2.7-.2 1.3.3.4.3 1 .6 1.3 1.1l.9 1 1.2 1.3a76.5 76.5 0 003.2 2.9l1 .8 1.2.9.8.5.8.7.5.2h.1c.3.4.7.5 1 .8l1.2.7.6.3.7.4 1 .5.9.5c.6.3 1.2.5 1.8 1l.5.1c.2.2.5.1.7.3.2.3.5 0 .7.4.5 0 .9.4 1.3.5l.4.2.5.2c.1 0 .3 0 .4.2l.6.2c.3.1.6.4 1 .3 0 .3.3 0 .5.4h.2c.1 0 .3 0 .5.2 0 .1.3 0 .5.2l.4.1.1.3c.3-.2.5 0 .7.2.1-.2.3 0 .4 0 .2.2.3.2.5.2.4 0 .7.3 1.2.4l.3.2h.8l.5.3h.1c.3.1.6 0 .8.3h.2l2 .4.5.1h.3l.3.1h.4l1.4.3c.6.2 1.3 0 1.9.1.4.1.9 0 1.4-.1l.3.2.1-.1.2.5-.8.1.1.3.5.1.1.3a396.9 396.9 0 00-.2.4c0 .4-.2.5-.4.7v.1c0 .2-.2.3-.4.4 0 0-.2-.3-.4-.1v.2l-.4-.2.2.2-.4.2v-.3h-.4l.1.3h-.3c-.5-.2-1 0-1.5-.2l-1.6-.3s-.2.2-.3 0h-.2c-.1-.2-.2 0-.4 0l-.5-.2a26 26 0 01-2-.4l-.7-.2-.8-.2c.4 0 1.3.1 1.7.3l-.2-.2-.8-.2c-.4 0-.7-.3-1.1-.3-.1-.2-.3-.1-.4-.2-.2-.2-.4 0-.6-.2l-.6-.2v-.1-.1a2578.6 2578.6 0 011.4.3l-.1-.2-.2.2V85l-.1.1-.2.1V85l-.5-.3-.2.3-.4-.3h-.2l-.2-.4h-.1l-.2-.1.1-.2.1.2.3-.1v.2h.5l.6.1.1.3c.2-.2.4 0 .6 0v-.3l-.2.1v-.3c-.2 0-.2.1-.3.2l-.3-.2c-.1.1-.2 0-.4-.1l-.4-.3v-.3l-.2.3-.4-.1c-.2 0-.4 0-.5-.2 0-.2-.2.1-.3 0-.1-.2-.3-.2-.4-.3l-.3.4a210.9 210.9 0 00.5.2h-.1v.2h-.4l-.4-.1c-.2-.2-.3-.1-.5-.2l-.1-.3-.3.2c.4.4.9.5 1.4.7a1 1 0 01-.7 0s-.1-.2-.3-.2h-.3l-.2-.2h-.4l-.4-.3a2 2 0 01-.4-.1 298 298 0 01-.2.1c-.4.1-.7-.3-1-.3l-.2-.4h-.3c.2 0 .2.1.3.2h-.1c-.2 0-.4 0-.6-.2 0-.1-.3 0-.5-.2l-.7-.2-.6-.4-1-.5c-.4-.1-.8-.2-1-.5-.2-.1-.4 0-.6-.2l-1.1-.7c-.3 0-.4-.2-.7-.3-.3 0-.4-.3-.5-.6l-.1.2v-.1h-.2l-.4-.2c-.2 0-.3-.2-.5-.4-.5 0-.8-.5-1.3-.6v-.5l-.1.3c-.4-.1-.7-.4-1-.7v-.2l-.1.1h-.3v-.3h-.5v-.3h-.2l-.2-.3V76l-.3.4-.7-.5-.7-.6c-.2-.1-.3-.4-.5-.4 0-.2-.2-.2-.3-.3-.2-.2-.5-.2-.5-.4-.1-.3-.4-.2-.5-.5l-.4-.3a1 1 0 01-.5-.5h-.2" fill="#000"/>
    <path d="M207.9 84.4l-.1.2-.3 1.5c-.2.4-.3.8-.6 1-.5.6-1 1.3-1.8 1.6 0 .3-.6.2-.7.6-.4.1-.8.5-1.2.7l-.7.4h-.4l-.2.4-.7.3v.4h-.3c-.2.2.1.2.2.3-.2.3-.5.5-.9.6l-.5-.6.1-.8-.2-.3c.1-.4 0-.9.3-1.2l.4-.5c.2-.1.2-.3.4-.3l.2-.3c.1-.3.4-.4.6-.5.4-.4 1-.8 1.5-1 .5-.4 1-.8 1.6-1l.4-.2.6-.3-.7-.4-.1.2-1.5-.8v-.3l-1.1-.6c-.2 0-.4.2-.5 0l.2-.1c-.3 0-.4-.6-.8-.2-.4-.5-1.1-.4-1.3-1h-.2l-.9-.5c-.3 0-.4-.5-.8-.6-.4 0-.9-.2-1.2-.7V80v-.2l-.1-.2.5-.2-.2-.3.4-.1c.2.3.6.2 1 .4.4.3 1 .4 1.5.7l1.7.9 1.8.9 1.5.7c.2.3.6.1.7.4.5 0 .8.4 1.3.5l.2.2c.4.1.8.3.9.8M177.5 201.8c-.1 0-.3.1-.4 0h-1l-1.3.1h-3.5l-.8-.1h-.1v.2h1c.3.1.6 0 .8 0h.7c.3.2.5 0 .7 0 .2.2.5 0 .7 0h1c.2.2.6-.2.9 0h2c.3 0 .6-.1.8 0h2.9s.2-.1.2 0h1.5c.1 0 .2-.2.3-.1h.6l.6-.1H186.8v-.2l.4.2c.3-.2.5-.3.7-.2.3.1.5 0 .7-.2.2-.1.5.2.7 0 .2-.2.5-.2.8-.3h-1.3c-.4.2-.8 0-1.2.2-.2-.1-.4 0-.6.2l-.4-.3-.4.3c-.2-.1-.4-.2-.5 0l-.3-.1c-.5 0-1 .2-1.5 0h-.6l-1.2.2h-1.4-.3v.1h-1.1-.2v.2l-.6-.2-.9.1" fill="#000"/>
    <path d="M150 201.3l-.1-.2h-.1c-.4 0-.7-.2-1-.3l-1.5-.4c-.3-.2-.8-.2-1.2-.5-.3-.2-.7-.1-1-.4-.4 0-.7-.4-1-.5h-.4c-.2 0-.2 0-.4-.4h-.2c-.3-.3-.8-.1-1.1-.4 0 0 0-.1-.1 0-.7 0-1.2-.6-1.8-.7l-.6-.3h-.3l-.1-.4-.3-.3.9-.3h-.7-.1c.7-.5.8-.5 1.7-.3.8.2 1.5.2 2.1.6.6 0 1 .3 1.6.5l2.1.7a111 111 0 005.3 1.4l1.7.4 1.7.3 1.3.2 1.2.3h.9c.6.2 1.2.2 1.7.2l1.7.2 1 .1h1l1.5.2h1.3c1 .1 1.8 0 2.7.2h1.8c.4.1.7-.2 1 0h3.2c.2 0 .4-.2.6 0h1l1.2-.1c.2.2.6-.1.8 0h2.3l.3.1c.3-.3.6-.2 1 0 0-.2.4-.3.5-.2h.6c.6-.1 1.2 0 1.7-.2l.5.2.3-.2h.8c.2-.2.5-.1.7 0l.2-.1c.4 0 .7-.3 1-.1h.4l2.7-.5.6-.1c.2 0 .3-.2.5-.1h.4l.5-.2c.7-.1 1.3-.3 2-.3l2.4-.6 1.7-.8.5.1.1-.1.5.4-1 .4.3.3.6-.2.3.2-.4.5h.3c.1.3 0 .6-.2.8v.1l-.3.6c-.2 0-.4-.2-.6 0l.2.2h-.8.4l-.4.4-.2-.2h-.4l.2.4h-.4c-.7 0-1.3.4-2 .5l-2.1.4c-.2 0-.2.2-.4.1h-.3c-.3 0-.3.2-.5.2h-.8l-2.7.5h-1l-1 .2a8 8 0 012.2-.4h-.3v-.2l-1 .2c-.6.2-1.1 0-1.7.2h-.6c-.3-.1-.5.2-.8 0l-.8.1a1658.2 1658.2 0 00-.2-.2 4675.3 4675.3 0 012-.3l-.2-.1-.2.2-.2-.4-.1.1-.2.2v-.2h-.9v.2H184c-.2 0-.3-.2-.5-.3v.2l-.5-.1.2-.2h.2s.2 0 .3-.2l.1.3.5-.3h1l.2.1c.2-.2.4-.1.7-.2v-.3l-.2.2-.3-.3-.2.4-.4-.2c-.2.2-.4.2-.6 0h-.6l-.3-.3v.4h-1.2c-.3 0-.3.3-.6.2h-.6l-.2.4a382.7 382.7 0 00.8 0h-.1v.2l-.5.1c-.2 0-.4.2-.6.1h-.6l-.3-.2-.3.3c.7.2 1.3.1 2 .1-.3.2-.5.2-.8.2h-.9c-.1.2-.2 0-.3 0H177.8l-.9.3h.8c-.6.3-1 0-1.6.2l-.3-.4-.4.1.4.1-.1.1c-.3 0-.5.1-.8 0h-5.7c-.2-.2-.5 0-.8-.1l-1.7-.1h-1c-.4 0-.7-.2-.9-.4v.2H163.9l-.9-.2c-.5.2-1.1-.2-1.8 0 0-.2 0-.3-.2-.5v.3c-.7 0-1.1 0-1.6-.2v-.2l-.2.1-.4.1-.2-.2-.6.1v-.2l-.3.1-.4-.2-.1-.4-.2.5-1.2-.2-1.2-.3c-.2 0-.4-.2-.7-.1-.1-.2-.4-.2-.6-.2-.2-.1-.6 0-.8-.2-.2-.2-.5 0-.7-.2l-.7-.2c-.3 0-.5 0-.8-.2h-.3" fill="#000"/>
    <path d="M206.3 196v.2c.3.4.2 1 .2 1.4 0 .4 0 .8-.2 1.2-.3.7-.5 1.5-1.1 2 0 .4-.6.5-.5.9l-.9 1-.5.7s-.2 0-.3.2l-.2.4-.5.5v.4h-.1c-.1.3.1.2.2.3 0 .4-.3.6-.6.8l-.7-.3-.1-.9-.3-.2c0-.4-.3-.8-.1-1.2 0-.2 0-.4.2-.6 0-.1 0-.3.2-.4v-.4l.4-.7 1.1-1.5c.4-.4.7-1 1.2-1.3l.4-.4c0-.2.2-.3.3-.5-.2 0-.4 0-.7-.2v.3l-1.7-.2v-.3l-1.4-.2c-.1 0-.2.3-.5.1l.2-.1c-.2 0-.6-.4-.8.1-.5-.4-1.2 0-1.6-.5l-.1.1-1-.1c-.4 0-.6-.4-1-.4-.4.1-1 0-1.4-.2l-.2-.5v-.2l-.2-.2.4-.3-.3-.2.4-.3c.3.3.6 0 1 .1l1.6.1c.7 0 1.3.2 2 .3l2 .2 1.7.2c.2.2.5 0 .7.1.5-.1 1 .2 1.4 0l.3.1c.4 0 .8 0 1 .5M183.1 139h.5l1-.4 1.2-.3 1.6-.7c.6-.1 1-.4 1.7-.5l.7-.4h.1v.2l-1 .3c-.2.2-.5.1-.7.3-.2.2-.5 0-.6.3-.2.2-.5 0-.7.2-.1.2-.5 0-.6.2-.3.2-.7.1-.9.3-.3.3-.7 0-.9.4l-.9.3c-.3 0-.7.1-1 .3-.3.2-.6.1-.8.3-.2.1-.4 0-.6.2-.2.2-.4.2-.6.2l-.5.2c-.3.2-.6.3-1 .3h-.2c-.2.4-.5.2-.7.4-.2.2-.5.1-.7.2h-.3c-.1.2-.4.2-.5.3h-.6l-.9.3-.7.3h-.1l-.4.2c-.3-.1-.5 0-.7.1-.2.2-.5 0-.7 0-.2 0-.4.4-.7.2h-.7c.3-.2.7-.4 1.1-.4.4 0 .8-.3 1.2-.2.2-.2.4-.2.7 0 0-.2.2-.3.3-.4h.4c.1-.1.3-.2.5 0l.2-.3 1.4-.4.6-.2 1.2-.4c.4-.1.8-.4 1.3-.4l.2-.1h.2l1-.2.1-.2.2.2.4-.4.9-.2" fill="#000"/>
    <path d="M208.9 129.2v-.3l.1.1.9-.7c.4-.3.8-.5 1.1-.9.3-.3.8-.5 1-.8.2-.3.7-.4.8-.8.4-.1.6-.5 1-.8l.2-.2.2-.4H214.5c.1-.5.7-.5.8-.9.7-.3 1-.9 1.6-1.2l.4-.5.2-.2v-.3l.3-.4h-1l.7-.2v-.1c-.8-.2-.8-.2-1.7.4-.6.4-1.3.7-1.8 1.2-.5.2-.8.7-1.3 1l-1.7 1.4a111 111 0 01-4.5 3.1l-1.4 1-1.6.9-1 .6-1.2.7c-.2 0-.4.3-.7.3h-.2c-.4.4-1 .5-1.4.8l-1.5.8c-.3 0-.6.2-.9.4l-1 .4-1.3.6-1.3.5-2.4 1c-.2.2-.5.2-.7.3-.3.2-.7.1-1 .4-.3.2-.7 0-1 .3-.6.1-1.1.5-1.8.6-.2 0-.3.2-.5.3l-.6.2c-.2 0-.5 0-.6.2l-1 .3c-.3 0-.7.4-1 .3-.3.3-.7.1-.9.4h-.2l-.7.3c-.2.2-.5 0-.7.3h-.6l-.2.4c-.4-.2-.6 0-.8.2h-.7l-.5.3c-.6 0-1.1.4-1.7.4-.2 0-.3.2-.4.3h-.3l-.8.1c-.2 0-.5.1-.7.3h-.2c-.3 0-.7 0-1 .3h-.4l-2.7.5c-.2 0-.4 0-.5.2h-.5l-.4.2h-.5c-.7 0-1.4.2-2 .3-.8.2-1.7.2-2.5.3l-1.9-.1-.4.2h-.1l-.3.5h1l-.1.4h-.7l-.2.4.5.2-.2.2c0 .3.2.5.5.7h-.1l.5.5c.2-.1.4-.3.6-.2v.2l.6-.3v.1l-.3.2.5.1v-.2l.5-.1v.4h.3c.7-.3 1.4-.2 2-.3l2.2-.4c.1 0 .3.2.4 0h.3c.2-.3.3 0 .5 0l.8-.4c.9 0 1.8-.3 2.6-.4l1-.3 1-.2a8 8 0 00-2.2.3l.3-.1-.1-.1 1-.2c.6 0 1-.4 1.6-.4.2-.2.5-.1.6-.2.3-.2.6 0 .8-.2.2-.2.5-.2.8-.3l.1-.1v-.1a4675.3 4675.3 0 00-2 .4l.2-.2.3.1v-.4h.1l.2.2v-.3c.3 0 .5-.2.8-.3l.2.3.6-.4.2.1.3-.5.2.1.3-.2-.2-.1-.2.1h-.4v.2l-.6-.1c-.2.2-.5.1-.8.3l-.2.2c-.2-.2-.5 0-.7 0v-.3l.2.2.1-.4.3.3.4-.3c.2.1.3 0 .5-.1l.6-.3.1-.4.2.4.6-.2c.2 0 .4 0 .5-.2.2-.2.4.1.6 0 .1-.2.3-.2.5-.3l.4.4a381.4 381.4 0 01-.7.1l.1.1v.2l.5-.1.6-.1c.2-.2.4-.1.6-.2l.2-.3c.2 0 .3 0 .4.2-.6.4-1.2.5-1.9.8l.8-.1.5-.2c.1 0 .3-.2.4-.1.2.1.2-.1.3-.2h.5l.6-.3c.2 0 .3 0 .5-.2h.9l-.7.1c.6.2 1-.2 1.5-.3l.2-.4h.4c-.2 0-.2.1-.3.2h.1c.2 0 .5 0 .7-.2.2-.2.5 0 .7-.2l1-.4 1-.3c.4-.3.9-.4 1.3-.6.5-.2 1-.2 1.4-.6l.7-.2 1.6-.8.9-.4c.4 0 .6-.3.7-.6l.2.2v-.1h.2l.6-.2.7-.4c.6 0 1-.6 1.7-.7v-.5l.2.3c.6-.2 1-.5 1.3-.8v-.2h.6l.2-.2.5-.1v-.3h.3l.3-.3v-.4l.4.4c.3-.2.6-.5 1-.6l1-.7c.2 0 .3-.3.6-.3 0-.3.3-.3.5-.4.2-.2.6-.2.7-.4.1-.3.5-.2.6-.5l.6-.4c.3-.1.5-.3.6-.5l.4-.1" fill="#000"/>
    <path d="M154.1 143.4l.1.2.3 1.5c.2.4.3.8.6 1 .5.6 1 1.3 1.8 1.6 0 .3.6.2.7.6.4.1.8.5 1.2.7l.7.4h.4l.2.4.7.3v.4h.3c.2.2-.1.2-.2.3.2.3.5.5.9.6l.5-.6-.1-.8.2-.3c-.1-.4 0-.9-.3-1.2l-.4-.5c-.2-.1-.2-.3-.4-.3l-.2-.3c-.1-.3-.4-.4-.6-.5-.4-.4-1-.8-1.5-1-.5-.4-1-.8-1.6-1l-.4-.2-.6-.3.7-.4.1.2 1.5-.8v-.3l1.1-.6c.2 0 .4.2.5 0l-.2-.1c.3 0 .4-.6.8-.2.4-.5 1.1-.4 1.3-1h.2l.9-.5c.3 0 .4-.5.8-.6.4 0 .9-.2 1.2-.7v-.5-.2l.1-.2-.5-.2.2-.3-.4-.1c-.2.3-.6.2-1 .4-.4.3-1 .4-1.5.7l-1.7.9-1.8.9-1.5.7c-.2.3-.6.1-.7.4-.5 0-.8.4-1.3.5l-.2.2c-.4.1-.8.3-.9.8" fill="#000"/>
  </g>
</svg>
