<svg xmlns="http://www.w3.org/2000/svg" width="20" height="22" viewBox="0 0 20 22"><title>Group 41</title><g fill="none" fill-rule="evenodd" stroke="#48AC98" stroke-linecap="round" stroke-linejoin="round" stroke-width="1.5"><path d="M6.17 20.056a11.941 11.941 0 0 1-2.168-6.877c0-3.314 2.685-6 5.997-6a5.998 5.998 0 0 1 5.997 6"/><path d="M16.321 19.163c-.108.006-.214.016-.323.016a5.998 5.998 0 0 1-5.997-6"/><path d="M11.247 20.821a8.994 8.994 0 0 1-4.245-7.642 3 3 0 1 1 5.998 0 3 3 0 1 0 5.998 0c0-4.971-4.028-9-8.996-9-4.968 0-8.996 4.029-8.996 9 0 1.108.124 2.187.352 3.227"/><path d="M18.373 4.973A11.125 11.125 0 0 0 10 1.179a11.125 11.125 0 0 0-8.373 3.794"/></g></svg>