<svg xmlns="http://www.w3.org/2000/svg" width="22" height="22" viewBox="0 0 22 22"><title>Group 50</title><g fill="none" fill-rule="evenodd" stroke="#266678" stroke-linecap="round" stroke-linejoin="round" stroke-width="1.5"><path d="M6.083 20.813a4.897 4.897 0 0 1-2.065-.454L1 21l.631-3.024a4.904 4.904 0 1 1 4.447 2.832"/><path d="M5.612 11.019A6.625 6.625 0 0 1 5 8.24C5 4.223 8.598 1 13 1s8 3.223 8 7.24c0 2.374-1.262 4.464-3.199 5.782.001.756-.001 1.775-.001 2.845l-3.139-1.546A8.81 8.81 0 0 1 13 15.48a8.789 8.789 0 0 1-2.056-.25m-7.149.735a.05.05 0 1 1-.07.07.05.05 0 0 1 .07-.07m2.25 0a.05.05 0 1 1-.07.07.05.05 0 0 1 .07-.07m2.25 0a.05.05 0 1 1-.07.07.05.05 0 0 1 .07-.07"/><path d="M13 9.044c0-.657.406-1.013.813-1.287.398-.268.796-.617.796-1.26a1.609 1.609 0 1 0-3.218 0M13 11.458a.1.1 0 0 0-.1.1.1.1 0 0 0 .1.1.1.1 0 0 0 .1-.1.1.1 0 0 0-.1-.1"/></g></svg>