<svg xmlns="http://www.w3.org/2000/svg" width="20" height="21" viewBox="0 0 20 21"><title>Group 49</title><g fill="none" fill-rule="evenodd" stroke="#266678" stroke-linecap="round" stroke-linejoin="round" stroke-width="1.5"><path d="M18.819 20l-1.826-1.844M14.057 11h0c2.29 0 4.148 1.876 4.148 4.19h0c-.034 2.3-1.871 4.156-4.148 4.19h0c-2.29 0-4.148-1.876-4.148-4.19 0-2.314 1.857-4.19 4.148-4.19M1 15v2h0c0 1.105.886 2 1.98 2h3.96M18.819 9V4h0c0-1.105-.887-2-1.98-2h-5.94"/><path d="M15.468 14.457l-1.763 1.78-1.059-1.067M7.93 10.5H1.495h0A.498.498 0 0 1 1 10s0 0 0 0v-.406h0A2.09 2.09 0 0 1 3.073 7.5h3.279a2.09 2.09 0 0 1 2.072 2.094V10h0c0 .276-.221.5-.494.5 0 0 0 0 0 0h0zM4.712 5h0a1.99 1.99 0 0 1-1.98-2c0-1.105.887-2 1.98-2 1.09 0 1.976.89 1.98 1.992h0A1.99 1.99 0 0 1 4.72 5h-.008 0z"/></g></svg>