<svg xmlns="http://www.w3.org/2000/svg" width="24" height="22" viewBox="0 0 24 22"><title>Group 39</title><g fill="none" fill-rule="evenodd" stroke="#48AC98" stroke-linecap="round" stroke-linejoin="round" stroke-width="1.5"><path d="M20.621 21h-6.434c-1.185 0-2.145-.895-2.145-2v-6c0-1.105.96-2 2.145-2h6.434c1.185 0 2.145.895 2.145 2v6c0 1.105-.96 2-2.145 2z"/><path d="M12.037 15.239c-.686.15-1.4.241-2.14.241-.61 0-1.205-.056-1.781-.159l-3.367 1.546c0-1.07-.002-2.089 0-2.845-2.078-1.318-3.431-3.408-3.431-5.782C1.318 4.223 5.176 1 9.897 1c4.72 0 8.58 3.223 8.58 7.24 0 .981-.234 1.913-.65 2.764"/><path d="M10.087 8.21a.238.238 0 0 1 0 .354.282.282 0 0 1-.38 0 .238.238 0 0 1 0-.354.284.284 0 0 1 .38 0m3.813 0a.238.238 0 0 1 0 .354.282.282 0 0 1-.38 0 .238.238 0 0 1 0-.354.284.284 0 0 1 .38 0m-7.627 0a.238.238 0 0 1 0 .354.282.282 0 0 1-.38 0 .238.238 0 0 1 0-.354.284.284 0 0 1 .38 0m13.514 6.679l-2.98 2.778L15.022 16"/></g></svg>